<?xml version="1.0" standalone="no"?>
<!DOCTYPE svg PUBLIC "-//W3C//DTD SVG 20010904//EN"
 "http://www.w3.org/TR/2001/REC-SVG-20010904/DTD/svg10.dtd">
<svg version="1.0" xmlns="http://www.w3.org/2000/svg"
 width="1280.000000pt" height="1280.000000pt" viewBox="0 0 1280.000000 1280.000000"
 preserveAspectRatio="xMidYMid meet">
<g transform="translate(0.000000,1280.000000) scale(0.100000,-0.100000)"
fill="#000000" stroke="none">
<path d="M6876 11861 c-4 -7 -5 -15 -2 -18 9 -9 19 4 14 18 -4 11 -6 11 -12 0z"/>
<path d="M7105 11847 c-76 -39 -90 -44 -102 -40 -7 2 -20 0 -29 -5 -13 -7 -22
-5 -34 11 l-17 21 -12 -23 c-7 -12 -19 -20 -26 -17 -7 2 -19 -2 -25 -9 -14
-17 -48 -14 -59 4 -5 8 -18 10 -34 5 -20 -4 -27 -2 -27 8 0 7 -10 18 -22 23
-19 9 -35 4 -88 -22 -36 -18 -69 -33 -74 -33 -4 0 -6 18 -4 40 4 43 -2 49 -23
24 -22 -27 -99 -75 -109 -69 -6 3 -10 13 -10 22 0 15 -2 14 -18 0 -10 -10 -22
-17 -27 -17 -4 0 -23 -11 -40 -25 -42 -31 -51 -22 -23 24 l21 36 -44 -40 c-24
-22 -47 -44 -51 -50 -4 -5 -10 -6 -14 -3 -3 4 3 25 15 48 20 39 15 54 -9 25
-7 -8 -27 -15 -46 -15 -18 0 -35 -4 -39 -10 -3 -5 -12 -7 -21 -3 -11 4 -13 14
-9 34 8 34 3 35 -33 10 -24 -18 -54 -25 -90 -22 -8 1 -11 8 -7 20 5 15 -1 19
-36 25 -39 6 -43 5 -81 -39 -44 -50 -63 -58 -54 -21 5 20 1 25 -22 32 -32 9
-62 6 -79 -8 -9 -7 -13 -7 -13 1 0 7 -9 9 -27 5 -23 -6 -25 -4 -20 15 3 11 4
21 2 21 -7 0 -53 -27 -82 -47 -43 -32 -56 -30 -48 7 6 29 -6 42 -20 20 -3 -5
-13 -10 -22 -10 -8 0 -24 -11 -35 -25 -13 -16 -29 -25 -48 -25 -28 0 -29 2
-23 38 3 20 10 43 16 50 6 8 6 12 -1 12 -6 0 -14 -5 -17 -10 -4 -6 -25 -22
-48 -37 -38 -24 -41 -24 -53 -8 -8 11 -21 16 -34 12 -11 -3 -20 -1 -20 5 0 6
-7 7 -17 3 -10 -5 -28 -9 -39 -10 -12 -1 -41 -18 -65 -38 -23 -20 -46 -37 -51
-37 -14 0 -9 37 7 50 25 21 17 33 -11 15 -19 -12 -29 -14 -39 -5 -9 8 -24 7
-54 -4 -41 -14 -81 -12 -81 4 0 5 -14 3 -32 -3 -24 -9 -32 -9 -35 0 -3 9 -16
4 -40 -14 -34 -26 -36 -26 -49 -9 -7 11 -15 23 -17 29 -2 6 -16 4 -37 -6 -18
-9 -41 -17 -51 -17 -10 0 -21 -4 -24 -10 -13 -21 -23 -9 -21 25 3 38 -14 47
-43 21 -26 -23 -91 -56 -91 -47 0 5 7 14 15 21 8 7 15 20 15 29 -1 14 -2 14
-13 0 -12 -15 -73 -49 -89 -49 -4 0 -8 7 -8 15 0 21 -39 19 -75 -5 -30 -20
-99 -27 -109 -11 -3 5 3 20 14 34 28 35 25 56 -3 28 -23 -21 -57 -21 -57 1 0
5 -17 0 -39 -12 -46 -26 -73 -23 -81 9 l-5 23 -19 -21 c-13 -14 -26 -19 -41
-15 -13 3 -26 1 -29 -5 -10 -16 -26 -13 -26 4 0 13 -3 13 -20 3 -11 -7 -20
-17 -20 -23 0 -6 -10 -16 -21 -24 -20 -12 -21 -11 -17 7 3 11 2 26 -2 33 -11
16 -35 -2 -56 -43 -8 -15 -21 -28 -29 -28 -18 0 -19 12 -2 29 10 11 7 12 -14
7 -18 -4 -31 -1 -39 9 -10 12 -16 13 -27 4 -7 -7 -36 -23 -64 -35 -42 -20 -51
-21 -55 -9 -4 8 -14 15 -24 15 -10 0 -21 6 -24 13 -4 8 -10 5 -22 -10 -9 -13
-24 -23 -33 -23 -10 0 -28 -11 -41 -25 -13 -14 -29 -24 -36 -21 -6 2 -21 -9
-33 -25 -12 -16 -26 -29 -31 -29 -17 0 -11 50 9 78 19 28 24 62 9 62 -4 0 -8
-4 -8 -8 0 -4 -29 -23 -63 -40 -35 -18 -83 -53 -107 -77 -47 -48 -60 -54 -60
-29 0 11 -6 14 -20 9 -13 -4 -20 -2 -20 7 -1 7 -8 1 -16 -14 -8 -16 -22 -28
-30 -28 -21 0 -12 56 17 105 12 19 16 35 11 35 -14 0 -42 -40 -42 -61 0 -16
-30 -49 -44 -49 -5 0 -6 9 -3 20 8 30 -10 14 -29 -25 -10 -22 -24 -36 -38 -37
-11 -1 -29 -2 -38 -3 -9 0 -25 -8 -36 -18 -10 -9 -28 -17 -39 -17 -12 0 -23
-7 -27 -15 -3 -8 -12 -15 -21 -15 -18 0 -19 5 -4 32 8 15 -1 11 -33 -15 -25
-20 -49 -37 -55 -37 -16 0 -52 -44 -63 -77 -16 -44 -40 -51 -40 -12 0 18 -4
28 -10 24 -10 -6 -14 8 -10 35 2 18 5 20 -54 -52 -25 -32 -46 -61 -46 -66 0
-4 -8 -19 -17 -32 l-17 -24 -6 23 c-5 24 -6 24 -42 -14 -32 -34 -38 -37 -44
-22 -4 10 -1 30 5 45 l11 27 -20 -25 c-11 -14 -30 -36 -41 -50 -12 -13 -29
-39 -37 -58 -10 -19 -21 -31 -29 -27 -8 2 -17 -5 -22 -18 -5 -12 -18 -30 -30
-39 -11 -10 -23 -30 -26 -45 -12 -60 -54 -110 -55 -66 -1 15 -5 13 -23 -9 -13
-16 -30 -28 -40 -28 -15 0 -22 -11 -18 -33 2 -10 -51 -56 -65 -57 -18 0 -54
-45 -54 -68 0 -12 -7 -27 -15 -34 -56 -48 -105 -100 -105 -112 0 -16 -58 -134
-70 -141 -5 -3 -7 -12 -4 -19 3 -7 -11 -33 -30 -57 -20 -24 -45 -62 -57 -84
-12 -22 -26 -43 -32 -47 -19 -12 -27 2 -17 27 5 14 8 25 6 25 -6 0 -40 -75
-61 -133 -9 -27 -24 -51 -31 -54 -8 -3 -12 -13 -9 -23 3 -9 -2 -37 -11 -61
-18 -50 -26 -156 -13 -165 10 -6 28 35 33 75 9 66 32 80 42 25 6 -34 0 -55
-28 -98 -10 -15 -10 -19 0 -23 30 -11 -8 -103 -43 -103 -8 0 -19 -9 -25 -20
-6 -11 -17 -20 -24 -20 -8 0 -16 -11 -18 -25 -7 -34 15 -33 40 2 25 34 40 23
22 -14 -7 -16 -12 -36 -11 -46 1 -10 -9 -38 -23 -64 -14 -25 -26 -52 -26 -59
0 -16 16 -19 25 -4 10 17 33 11 40 -10 3 -10 -1 -33 -10 -51 -14 -25 -14 -33
-4 -40 10 -6 10 -15 2 -43 -11 -37 -6 -45 15 -24 9 9 12 6 12 -15 0 -16 -9
-36 -22 -47 -37 -32 -155 -145 -132 -127 25 20 35 22 33 5 -3 -29 2 -36 23
-30 19 5 21 2 15 -26 -4 -18 -3 -31 1 -31 4 1 15 1 25 0 20 -1 24 -21 3 -21
-16 0 -39 -122 -24 -131 5 -3 9 -15 7 -25 -1 -11 2 -28 6 -38 5 -11 3 -45 -4
-80 -7 -34 -13 -81 -14 -106 -2 -30 -12 -59 -30 -86 -32 -47 -30 -104 4 -104
17 0 16 -3 -6 -36 -29 -43 -33 -64 -7 -41 30 27 34 20 27 -45 -5 -44 -14 -70
-30 -88 -36 -40 -88 -151 -76 -163 11 -11 18 1 23 42 2 14 9 26 16 29 22 7 5
-109 -19 -130 -10 -9 -19 -23 -19 -31 0 -26 60 38 66 72 4 17 13 36 22 43 13
11 14 10 9 -7 -4 -11 -2 -38 3 -60 5 -22 5 -42 1 -45 -5 -3 -10 -33 -13 -67
-4 -54 -2 -63 13 -63 9 0 20 7 23 16 4 9 9 15 11 12 6 -6 -21 -62 -47 -100
-15 -22 -16 -31 -7 -46 9 -15 7 -30 -10 -77 -12 -33 -28 -70 -36 -84 -8 -15
-22 -44 -31 -66 -10 -22 -20 -44 -22 -50 -8 -15 51 48 81 88 15 20 27 42 27
50 0 19 26 41 34 29 3 -6 -1 -15 -9 -22 -9 -7 -13 -21 -10 -31 3 -10 -3 -36
-15 -58 -11 -22 -20 -54 -20 -70 0 -16 -4 -41 -10 -55 -9 -23 -7 -26 15 -26
15 0 26 7 30 20 7 24 25 27 25 5 0 -9 -7 -18 -15 -21 -8 -4 -15 -14 -15 -23 0
-9 -14 -38 -30 -64 -24 -39 -26 -46 -11 -37 11 5 29 23 41 40 23 32 39 37 57
19 9 -9 7 -21 -8 -50 -11 -22 -15 -39 -9 -39 15 0 12 -19 -12 -69 -18 -37 -22
-64 -23 -139 0 -91 -1 -95 -30 -121 -32 -29 -75 -85 -75 -98 0 -4 5 -2 12 5
18 18 28 15 28 -8 0 -34 19 -22 45 29 22 45 63 87 73 77 9 -10 -24 -83 -49
-111 -34 -37 -49 -74 -39 -99 5 -16 9 -14 23 17 10 20 23 39 29 43 11 7 10 1
-10 -76 -6 -26 -5 -39 4 -48 8 -7 15 -8 19 -2 12 20 36 11 33 -12 -2 -13 -9
-22 -17 -20 -26 5 -39 -30 -34 -89 5 -48 2 -64 -16 -95 l-22 -37 21 -14 c25
-18 25 -48 0 -98 -11 -22 -20 -45 -20 -52 0 -7 -5 -22 -12 -33 -15 -23 -4 -37
16 -21 21 18 26 1 11 -41 -12 -37 -12 -38 11 -32 28 7 30 -3 9 -61 -8 -22 -15
-46 -15 -52 0 -21 27 -15 33 7 3 11 10 20 16 20 12 0 11 -169 -1 -176 -4 -3
-8 -15 -8 -26 0 -12 -8 -30 -17 -40 -9 -10 -23 -36 -29 -56 l-13 -37 27 33
c15 18 30 32 35 32 10 0 9 -52 -3 -70 -5 -9 -5 -19 1 -26 10 -12 2 -44 -11
-44 -4 0 -10 -9 -13 -20 -3 -11 -1 -20 5 -20 5 0 6 -5 3 -10 -4 -6 -11 -8 -16
-5 -5 4 -13 -4 -18 -17 -5 -13 -16 -30 -25 -37 -9 -7 -16 -20 -16 -28 0 -11 4
-11 20 -3 32 17 42 -23 20 -82 -20 -53 -14 -70 12 -36 l18 23 0 -38 c0 -23 -4
-36 -10 -32 -10 6 -17 -7 -38 -72 -14 -44 -3 -41 31 7 16 22 33 40 38 40 23 0
-4 -161 -36 -210 -5 -8 -9 -60 -10 -115 0 -79 -4 -107 -18 -128 -9 -15 -14
-27 -10 -27 17 0 32 17 38 42 8 32 39 63 54 53 17 -10 13 -34 -10 -71 -12 -20
-16 -34 -9 -34 15 0 4 -36 -26 -80 -28 -40 -30 -50 -9 -50 8 0 18 12 21 28 8
31 22 52 36 52 21 0 -4 -95 -36 -140 -47 -66 -53 -78 -29 -58 11 10 29 18 41
18 16 0 22 6 23 23 0 12 3 16 6 9 9 -22 -27 -120 -63 -172 -19 -27 -34 -58
-34 -68 0 -9 -7 -28 -16 -40 -8 -12 -11 -22 -6 -22 11 0 72 88 72 102 0 5 5 6
10 3 7 -4 7 -12 0 -25 -5 -10 -7 -25 -5 -33 3 -7 -10 -37 -30 -66 -37 -55 -46
-82 -20 -61 8 6 23 9 35 5 17 -5 20 -12 15 -28 -18 -54 1 -116 30 -99 6 3 6 0
-1 -9 -18 -24 -23 -58 -9 -67 7 -4 20 -23 28 -43 12 -30 13 -40 1 -68 -7 -17
-20 -39 -29 -47 -8 -9 -15 -22 -15 -31 0 -10 10 -4 27 16 15 17 31 31 35 31
14 0 9 -39 -6 -47 -20 -11 -31 -59 -15 -68 7 -5 15 -1 21 9 21 37 29 14 25
-72 -3 -63 -2 -81 6 -65 5 12 16 24 23 27 21 8 17 -40 -4 -56 -14 -9 -21 -32
-26 -80 -4 -42 -3 -68 3 -68 5 0 11 -15 13 -32 l3 -33 23 23 c31 31 40 20 19
-23 -10 -22 -14 -46 -10 -65 4 -20 1 -36 -9 -48 -22 -25 -28 -61 -16 -88 14
-29 24 -31 31 -4 3 11 12 20 21 20 29 0 16 -35 -29 -80 -50 -49 -101 -118 -93
-125 3 -3 23 19 46 48 57 76 73 90 85 78 7 -7 7 -19 -1 -36 -7 -15 -10 -31 -7
-36 3 -5 1 -18 -5 -29 -12 -23 -3 -140 11 -140 5 0 18 18 29 40 11 22 27 40
35 40 8 0 15 5 15 10 0 6 5 10 10 10 30 0 -25 -143 -69 -180 -9 -8 -23 -30
-29 -49 -10 -29 -9 -37 8 -58 l19 -25 20 33 c24 39 19 50 -9 24 -19 -18 -20
-17 -20 3 0 12 9 26 19 32 11 5 26 22 33 37 20 40 43 43 35 5 -4 -20 -2 -32 6
-35 16 -6 21 -76 8 -124 -5 -21 -13 -67 -16 -102 l-7 -64 26 19 c14 11 26 27
26 37 0 30 19 57 35 51 11 -4 19 3 26 25 6 17 15 31 19 31 18 0 20 -40 5 -64
-12 -17 -15 -35 -10 -56 6 -26 4 -32 -14 -37 -12 -3 -21 -13 -21 -23 0 -13 6
-17 20 -13 14 4 20 0 20 -11 0 -9 7 -16 15 -16 9 0 15 9 15 24 0 34 10 56 24
56 31 0 54 -167 32 -230 -9 -25 -9 -25 12 -6 20 17 22 17 28 2 10 -25 21 -19
28 14 4 21 11 30 25 30 11 0 23 -5 26 -10 10 -16 -5 -88 -21 -104 -18 -19 -18
-46 0 -46 8 0 23 17 33 38 20 40 60 60 51 24 -4 -14 -1 -19 11 -18 18 1 21
-37 6 -89 -7 -27 -7 -29 8 -16 14 11 18 10 28 -12 10 -21 7 -34 -15 -80 -14
-31 -26 -62 -26 -69 0 -21 44 30 56 64 6 18 16 34 24 36 9 3 11 -1 7 -12 -10
-27 19 -19 31 9 17 38 35 31 30 -11 -4 -30 -1 -37 19 -45 21 -8 24 -15 22 -66
-1 -63 9 -123 21 -123 4 0 12 11 18 25 13 28 30 32 38 10 4 -8 12 -15 19 -15
15 0 28 -42 19 -64 -4 -11 0 -16 14 -16 12 0 25 -8 31 -17 8 -14 11 -12 24 19
22 52 37 57 37 11 0 -28 3 -34 10 -23 8 12 10 10 10 -9 0 -19 3 -21 14 -12 11
10 16 9 24 -5 14 -25 46 -10 65 32 17 34 37 39 37 8 0 -23 20 -16 30 11 5 14
14 25 20 25 13 0 13 -27 0 -35 -17 -10 -11 -25 10 -25 11 0 21 -4 21 -10 3
-20 5 -25 16 -45 6 -11 15 -17 19 -13 4 5 13 3 21 -3 10 -9 14 -5 19 20 13 64
41 50 53 -25 l7 -49 17 38 c16 37 37 43 37 11 0 -8 7 -17 15 -20 10 -4 15 -20
15 -45 0 -22 4 -47 9 -57 5 -9 12 -25 15 -35 7 -21 26 -23 26 -2 0 26 29 75
44 75 8 0 16 5 18 12 3 7 12 9 22 5 15 -6 17 -14 11 -58 -5 -37 -4 -50 4 -45
6 4 11 13 11 20 0 20 27 40 35 26 5 -8 11 -8 21 1 7 6 20 9 28 6 10 -4 12 0 9
14 -3 10 0 19 6 19 6 0 11 -9 11 -20 0 -11 4 -20 10 -20 5 0 13 -12 17 -27 7
-26 8 -25 13 16 3 25 10 46 17 48 10 4 46 -41 55 -70 2 -4 14 -9 27 -12 23 -4
35 -15 44 -40 3 -5 7 -7 11 -3 4 3 3 15 -2 25 -12 22 0 49 17 39 6 -4 11 -15
11 -25 0 -10 3 -20 6 -24 7 -7 38 24 47 46 13 35 67 9 67 -33 0 -11 9 -30 20
-42 19 -21 20 -21 20 -2 0 11 4 24 9 30 5 5 11 22 13 37 4 33 23 32 23 0 -1
-13 2 -23 6 -23 4 0 12 -14 19 -31 10 -22 15 -27 21 -17 7 10 15 5 34 -19 34
-43 55 -34 55 22 0 81 20 99 39 35 11 -38 13 -39 30 -23 10 10 21 25 24 33 3
8 6 -7 7 -35 0 -39 3 -46 11 -32 16 27 39 20 54 -16 8 -17 14 -26 15 -19 0 6
7 12 15 12 8 0 21 16 29 35 16 38 36 47 36 16 0 -10 7 -32 16 -47 l15 -29 -6
32 c-6 32 9 78 24 69 5 -3 14 -26 21 -51 13 -46 33 -58 57 -34 17 17 33 1 33
-32 0 -18 5 -29 14 -29 9 0 12 8 9 24 -6 27 22 76 44 76 8 0 19 -13 24 -29
l11 -30 36 20 c20 12 43 27 51 34 9 9 22 10 42 5 26 -8 29 -6 30 13 1 17 2 18
6 5 7 -26 32 -22 43 8 13 34 27 23 35 -29 5 -33 13 -46 35 -59 27 -15 28 -15
39 8 14 31 25 30 41 -4 l13 -27 11 50 c11 51 33 65 29 18 -1 -14 4 -32 12 -40
8 -8 15 -24 15 -36 1 -21 1 -21 15 3 12 22 14 23 20 7 7 -17 8 -17 20 0 12 16
15 15 42 -13 16 -16 33 -41 36 -57 9 -32 23 -35 32 -7 10 30 -4 80 -20 74 -13
-5 -18 5 -30 63 -4 19 -2 34 6 38 16 10 29 -14 29 -54 0 -28 2 -32 15 -21 19
16 32 6 40 -30 10 -47 29 -50 21 -4 -6 36 -5 37 9 19 47 -65 44 -64 45 -15 0
33 6 50 20 63 33 28 43 21 37 -22 -5 -37 -4 -39 14 -28 15 9 21 8 32 -7 13
-18 14 -18 13 5 -1 35 38 38 60 4 13 -19 20 -23 30 -14 22 18 34 1 35 -49 1
-26 3 -39 6 -29 3 12 10 16 24 12 14 -5 19 -2 19 12 0 10 5 25 10 33 8 13 12
12 25 -8 20 -28 35 -20 35 19 0 49 51 31 70 -25 6 -20 19 -36 31 -39 19 -5 20
-2 15 29 -7 36 6 46 22 18 12 -21 32 -10 32 17 0 28 19 61 31 54 5 -4 9 -17 9
-31 0 -13 5 -24 10 -24 6 0 10 7 10 15 0 22 28 18 35 -5 7 -22 44 -27 62 -9 8
8 19 6 39 -8 16 -10 25 -13 21 -6 -9 14 2 63 13 63 5 0 11 -14 15 -31 5 -23
10 -28 18 -20 19 19 26 12 38 -34 6 -25 16 -48 21 -51 6 -4 7 2 3 17 -14 43
-11 54 15 57 14 2 31 8 37 14 9 7 14 6 17 -3 13 -42 16 -49 26 -49 5 0 10 6
10 13 0 6 7 21 15 31 14 18 15 18 35 -5 11 -13 25 -41 31 -61 7 -21 16 -38 21
-38 11 0 10 21 -3 59 -7 20 -8 36 -1 44 5 6 12 29 16 50 9 50 24 47 28 -5 2
-34 7 -44 23 -46 11 -2 25 -10 31 -18 10 -13 12 -13 18 1 3 8 13 15 22 15 13
0 15 6 10 31 -5 27 -4 29 10 15 8 -9 19 -16 24 -16 5 0 11 -9 15 -19 3 -11 12
-22 21 -25 12 -5 14 2 9 42 -3 26 -1 61 4 77 7 23 9 25 10 9 1 -11 4 -24 9
-28 4 -4 12 -29 17 -54 8 -37 15 -48 33 -50 23 -3 32 21 12 33 -16 10 -12 48
4 42 7 -3 19 0 25 6 13 13 27 1 33 -28 2 -11 10 -20 18 -20 8 0 23 -17 32 -37
27 -57 40 -58 33 -1 -7 60 0 71 50 77 37 5 42 2 58 -25 14 -26 20 -29 32 -19
8 7 15 25 15 41 0 16 4 29 8 29 12 0 32 -46 32 -72 0 -31 32 -99 44 -95 7 2
10 32 8 75 -3 47 0 72 7 72 6 0 11 -6 11 -13 0 -17 42 -16 53 1 13 20 25 14
42 -22 13 -27 22 -34 41 -32 13 2 27 6 31 9 14 14 22 6 29 -28 3 -19 12 -35
19 -35 8 0 10 9 7 26 -4 25 -3 26 22 20 23 -6 26 -4 26 21 1 16 7 42 14 58
l14 30 11 -27 c12 -32 28 -36 46 -11 16 21 35 9 35 -23 0 -19 5 -24 25 -24 18
0 28 -7 35 -25 15 -39 31 -30 24 13 -4 28 -2 41 10 51 13 11 18 9 33 -18 11
-19 23 -29 32 -26 8 3 22 -2 33 -11 22 -20 28 -16 37 28 5 24 13 34 29 36 13
2 22 -2 22 -9 0 -7 6 -5 13 6 17 23 37 12 37 -21 0 -37 27 -73 50 -67 22 6 29
53 8 53 -17 0 0 13 22 17 10 1 22 -2 25 -7 3 -6 14 -10 24 -10 11 0 24 -12 31
-31 l13 -31 21 27 c19 23 24 25 34 12 9 -10 26 -13 59 -10 26 2 48 5 50 7 2 1
6 25 10 51 3 28 15 58 26 70 l20 20 -6 -25 c-4 -14 -3 -39 2 -55 l8 -30 12 23
c16 31 43 62 53 62 5 0 8 -12 8 -27 0 -16 9 -41 20 -58 14 -21 20 -25 20 -12
0 37 18 14 35 -45 22 -74 41 -102 30 -44 -9 53 4 188 19 183 6 -2 15 -20 19
-40 9 -37 30 -53 26 -19 -3 21 21 72 34 72 12 0 0 -82 -13 -90 -5 -3 -5 -11
-1 -18 6 -10 11 -10 21 3 16 19 36 19 44 0 8 -22 26 -18 26 5 0 24 13 26 30 5
7 -8 21 -15 30 -15 10 0 20 -6 23 -12 10 -29 22 8 20 64 -3 78 12 73 48 -18
26 -64 28 -66 29 -33 0 19 7 44 15 55 15 18 16 18 37 -10 13 -17 26 -41 29
-55 6 -26 6 -26 14 6 11 49 31 60 48 27 l14 -27 0 41 c0 49 16 72 49 72 25 0
32 -14 14 -25 -11 -7 -10 -105 1 -105 3 0 11 12 18 27 12 27 13 27 27 8 9 -11
21 -19 28 -17 7 1 19 -10 26 -25 l12 -28 11 23 c13 29 31 23 35 -11 2 -15 8
-27 13 -27 7 0 8 20 4 55 -9 69 4 71 35 5 13 -27 26 -50 30 -50 3 0 10 15 16
33 5 17 15 31 21 30 6 -2 15 7 18 18 9 26 29 19 33 -12 6 -45 11 -52 27 -39 8
6 19 9 25 5 8 -5 10 6 5 39 -8 53 0 90 15 66 6 -8 10 -27 10 -42 0 -15 5 -30
10 -33 6 -3 10 -22 10 -41 0 -46 17 -43 30 6 8 30 16 40 28 38 14 -2 16 4 14
31 -2 33 11 61 29 61 10 0 33 -49 30 -63 -2 -13 35 -57 43 -50 3 3 6 19 6 35
0 15 4 28 9 28 5 0 11 10 13 23 5 38 32 26 41 -20 4 -24 12 -43 18 -43 5 0 9
5 9 10 0 25 30 6 40 -25 17 -50 25 -50 49 1 12 25 31 55 42 67 10 11 19 27 19
35 0 9 8 5 20 -11 11 -14 20 -30 20 -35 0 -5 7 -15 15 -22 13 -10 15 -9 15 9
0 11 5 21 10 21 6 0 10 13 10 29 0 37 15 48 30 22 6 -11 17 -18 24 -15 8 3 19
-3 25 -14 6 -11 19 -22 29 -24 16 -5 18 2 16 67 -3 83 8 111 30 80 7 -11 23
-31 35 -45 l20 -25 1 43 c0 30 4 42 13 39 6 -2 12 -13 12 -24 0 -30 10 -36 34
-21 13 8 21 23 21 40 0 27 9 35 23 21 4 -3 18 -8 32 -9 19 -2 25 2 25 17 0 25
17 25 25 -1 10 -33 32 -24 27 10 -4 29 12 43 20 18 2 -6 12 -9 21 -5 14 5 16
14 11 45 -4 28 -2 41 10 51 9 8 20 11 24 7 4 -4 6 -51 4 -104 -2 -88 -1 -95
13 -78 8 11 15 26 15 33 0 23 14 13 39 -27 14 -22 26 -38 28 -36 2 2 -2 35 -9
74 -11 65 -10 73 7 92 11 12 25 18 36 15 9 -3 20 -1 24 5 10 17 25 1 46 -48
22 -50 34 -53 19 -3 -7 25 -6 33 6 38 7 3 14 18 14 33 0 43 17 46 34 6 12 -28
19 -34 40 -32 36 4 41 12 22 32 -18 18 -17 35 2 42 7 2 12 -3 12 -12 0 -9 5
-16 10 -16 6 0 10 9 10 21 0 17 4 20 24 15 14 -3 28 -1 32 5 5 9 11 6 21 -6
12 -18 13 -17 13 6 0 34 10 45 45 53 28 6 31 10 27 41 -5 42 14 48 24 8 4 -16
18 -42 31 -59 14 -19 26 -52 30 -83 9 -80 18 -68 20 31 4 132 31 213 49 144 3
-13 14 -26 25 -29 21 -6 25 3 7 21 -18 18 -14 97 8 129 l18 28 11 -63 c9 -56
11 -60 23 -42 6 11 12 29 12 40 0 24 25 27 34 4 3 -9 6 -28 6 -42 0 -15 4 -34
10 -42 18 -28 22 0 10 70 -7 39 -10 74 -7 77 9 9 27 -7 27 -25 0 -9 7 -26 15
-36 18 -23 18 -24 1 39 -12 45 -11 54 5 90 10 22 20 48 23 58 7 21 36 23 36 1
0 -8 5 -24 11 -36 11 -20 11 -19 24 6 9 17 12 43 8 76 -3 27 -3 56 1 66 6 16
8 16 26 -1 19 -18 20 -17 20 4 0 15 5 21 18 19 12 -2 18 5 20 23 2 15 12 35
23 45 10 9 19 25 19 36 0 10 7 18 15 18 8 0 15 5 15 11 0 6 7 18 16 26 10 11
14 26 10 44 -6 33 8 47 23 22 9 -16 10 -14 11 9 0 38 18 44 31 11 8 -22 12
-24 19 -13 6 8 10 32 10 52 0 20 5 38 11 40 6 2 13 24 15 48 2 31 10 49 24 59
11 7 20 20 20 28 0 10 6 12 20 8 18 -6 20 -2 19 47 -2 79 -1 81 21 75 11 -3
20 -1 20 4 0 5 -10 9 -22 9 -17 0 -19 3 -10 12 7 7 12 25 12 40 0 21 5 28 20
28 12 0 25 10 32 25 6 14 14 25 18 25 3 0 14 6 24 13 23 17 12 67 -15 67 -28
0 -27 70 0 77 21 5 45 58 35 75 -4 5 -1 21 7 34 10 19 10 27 1 36 -16 16 -15
48 2 48 7 0 19 -7 26 -15 10 -12 10 -18 -1 -31 -10 -13 -10 -17 2 -24 19 -12
34 27 20 55 -27 58 -16 133 24 148 18 8 19 24 2 57 -21 41 -13 91 20 117 15
13 31 23 36 23 13 0 7 38 -7 43 -21 8 -16 189 6 214 8 10 18 26 22 37 5 15 2
17 -18 12 -14 -3 -27 -2 -30 3 -5 8 19 32 86 84 13 10 17 15 10 12 -7 -4 -31
-4 -52 0 l-40 7 25 32 c30 40 31 46 5 46 -29 0 -25 27 5 34 14 4 25 12 26 19
0 6 2 22 3 34 2 13 -2 23 -7 23 -5 0 -6 15 -3 34 5 25 3 35 -9 39 -8 4 -12 13
-9 22 4 10 0 15 -15 15 -24 0 -28 22 -6 40 8 7 15 25 15 40 0 15 7 33 15 40 8
7 15 20 15 30 0 10 7 23 15 30 16 13 11 53 -9 79 -8 10 -5 17 9 27 10 8 22 14
27 14 4 0 8 4 8 9 0 5 -18 11 -39 15 -21 3 -41 12 -44 19 -10 27 2 70 28 97
17 18 23 30 16 34 -6 4 -16 4 -21 1 -17 -11 -23 25 -9 52 8 14 12 37 11 50 -2
15 5 34 18 48 l21 23 -26 26 c-26 26 -26 28 -9 41 16 12 17 16 5 24 -16 10 -9
31 26 80 18 24 18 25 -7 17 -14 -4 -36 -10 -50 -13 l-25 -6 28 31 c20 21 25
32 17 37 -7 4 -10 21 -7 38 3 23 -1 35 -16 48 -21 16 -21 17 -2 45 12 19 14
29 7 32 -21 7 -13 26 25 60 l38 33 -42 -4 c-48 -6 -59 3 -44 32 8 14 8 20 -1
23 -6 2 -8 10 -4 17 6 9 11 9 21 1 10 -9 16 -6 25 9 9 19 8 21 -15 21 -28 0
-34 17 -9 27 10 4 14 13 10 27 -3 12 -1 27 3 35 6 9 5 21 -2 32 -9 15 -7 23 9
41 36 39 37 48 4 31 -17 -8 -33 -13 -36 -10 -3 2 4 22 15 43 32 62 31 69 -9
65 -34 -3 -34 -2 -17 16 22 25 22 43 0 43 -13 0 -9 8 15 33 35 36 41 57 16 57
-10 0 -14 6 -10 15 3 8 1 15 -4 15 -18 0 -10 22 21 58 30 33 30 36 14 49 -18
12 -18 13 0 33 18 20 18 20 -8 20 -34 0 -35 19 -1 59 l26 31 -27 -10 c-38 -14
-43 -5 -17 30 26 34 27 43 9 59 -10 7 -17 7 -24 0 -8 -8 -13 -5 -18 10 -5 17
4 31 44 67 50 45 58 74 20 74 -24 0 -24 12 -1 40 18 23 18 24 0 42 -10 10 -24
18 -32 18 -8 0 -17 4 -20 8 -6 11 33 72 47 73 7 0 1 5 -12 10 l-24 9 23 25 23
25 -21 0 c-25 0 -28 11 -9 40 10 17 9 22 -1 29 -8 5 -11 17 -7 32 4 17 0 33
-14 51 -27 34 -26 46 6 80 25 26 22 35 -10 29 -5 -1 -6 7 -2 18 3 11 1 22 -5
26 -20 12 -11 64 13 76 32 17 38 31 19 45 -14 10 -14 14 -3 28 12 14 12 21 1
40 -11 21 -9 29 14 62 34 51 35 77 1 68 -19 -5 -25 -2 -25 10 0 9 7 19 15 22
8 3 21 19 28 34 14 26 13 29 -9 41 -30 15 -30 18 1 63 l25 36 -25 -6 c-31 -8
-36 21 -6 31 11 3 24 12 31 20 10 12 6 13 -24 8 -29 -4 -36 -2 -36 11 0 9 -5
16 -12 16 -7 0 -6 6 4 18 9 9 13 22 11 29 -2 6 5 17 16 23 24 12 28 30 7 30
-17 0 -27 35 -14 48 6 6 6 12 -1 16 -21 14 -10 49 25 83 40 38 38 53 -5 37
-21 -8 -32 -8 -46 2 -17 13 -16 15 9 49 27 35 27 37 12 70 -19 40 -20 54 -2
78 14 18 11 39 -9 90 -4 9 -3 17 3 17 6 0 14 -15 17 -32 8 -35 22 -58 36 -58
8 0 0 25 -24 77 -5 12 -7 33 -3 47 3 13 2 27 -2 30 -15 9 -13 73 3 86 8 7 13
15 10 19 -2 4 -6 20 -9 36 -4 23 1 36 22 58 l27 29 -39 -8 c-37 -6 -39 -6 -33
15 8 31 -14 22 -31 -12 -7 -15 -18 -27 -24 -27 -7 0 -7 5 1 14 8 9 8 16 2 20
-14 9 6 55 33 79 21 18 21 18 -11 14 -56 -6 -41 19 56 90 2 2 2 6 -2 9 -3 3
-19 -3 -35 -15 -17 -12 -35 -21 -41 -21 -17 0 -13 30 4 36 8 4 15 12 15 20 0
7 6 17 13 21 22 13 29 43 11 43 -12 0 -15 6 -11 22 3 12 2 29 -3 39 -7 12 -4
24 11 43 13 17 15 24 6 20 -13 -5 -31 27 -28 49 1 4 -6 7 -15 7 -26 0 -8 51
29 82 29 25 30 27 10 28 -29 0 -38 30 -34 116 2 45 -1 74 -8 78 -18 12 -12 43
12 59 l22 16 -22 0 c-27 1 -29 8 -6 33 14 16 15 21 4 28 -8 4 -11 15 -8 24 3
8 2 18 -3 21 -6 4 -6 14 1 27 12 22 14 22 -40 0 -10 -4 -13 -1 -9 9 3 8 9 22
13 32 5 13 2 17 -14 17 -26 0 -27 19 -1 72 11 23 20 46 20 51 0 6 12 26 26 46
22 31 23 33 2 11 -23 -26 -108 -75 -108 -63 0 3 18 21 40 40 22 19 40 38 40
42 0 4 -11 14 -25 21 -14 8 -24 19 -21 26 3 7 -2 10 -15 7 -33 -9 -24 42 16
86 40 44 43 51 15 44 -16 -4 -20 0 -20 20 0 14 -4 28 -9 31 -5 3 -7 15 -4 26
5 18 3 19 -21 10 -15 -5 -32 -10 -37 -10 -12 0 -12 43 1 56 8 8 7 19 0 39 -9
24 -7 31 11 52 l22 23 -21 0 c-21 0 -26 11 -25 48 1 9 -7 11 -28 7 -40 -9 -53
2 -36 28 7 12 17 30 20 41 6 15 4 17 -18 12 -29 -7 -33 13 -10 54 20 36 18 41
-10 28 -28 -13 -45 -4 -27 14 17 17 15 48 -3 48 -8 0 -23 -9 -32 -20 -27 -31
-53 -26 -53 10 0 22 7 33 28 44 l27 15 -34 -6 -35 -6 22 35 c28 46 28 56 -3
50 -28 -5 -30 0 -15 29 14 26 -4 25 -37 -1 -14 -11 -29 -17 -34 -14 -12 7 5
37 53 98 42 54 42 79 0 30 -38 -43 -92 -79 -92 -61 0 8 9 22 20 32 21 19 53
75 47 82 -2 2 -21 -8 -41 -22 -20 -14 -39 -25 -41 -25 -2 0 -1 16 2 35 5 31 3
35 -16 35 -22 0 -28 14 -11 25 18 11 10 25 -14 25 -13 0 -26 6 -29 13 -3 8 -9
6 -20 -7 -14 -19 -15 -19 -33 -2 -15 15 -15 21 -5 38 8 13 9 24 3 30 -6 6 -12
6 -16 -1 -4 -6 -14 -11 -23 -11 -11 0 -14 6 -9 25 4 16 2 25 -5 25 -6 0 -9 7
-5 15 3 9 0 15 -9 15 -18 0 -19 21 -2 40 21 24 -23 -11 -61 -47 -35 -35 -62
-43 -62 -18 0 8 10 23 22 34 19 18 19 21 4 27 -10 4 -24 0 -35 -10 -10 -9 -21
-13 -24 -9 -9 9 22 43 40 43 7 0 13 3 13 8 0 12 -62 12 -77 0 -23 -19 -23 -4
-1 40 11 24 19 45 16 47 -6 6 -79 -18 -131 -43 -4 -2 2 12 13 31 14 23 19 44
15 60 -4 14 -2 28 4 31 16 11 13 26 -5 26 -10 0 -14 6 -10 15 4 12 -3 15 -34
15 -28 0 -40 4 -40 14 0 12 -6 13 -32 4 -18 -6 -37 -15 -43 -19 -14 -13 -25
-11 -25 5 0 8 9 18 20 21 11 3 20 11 20 16 0 12 -3 12 -36 -6 -40 -21 -66 -19
-62 3 2 11 -3 26 -10 35 -11 12 -11 20 -2 38 9 17 9 23 0 29 -7 4 -10 12 -6
18 3 5 -9 12 -26 16 -24 5 -37 1 -54 -15 -12 -12 -29 -19 -36 -16 -7 2 -21 0
-32 -5 -17 -9 -18 -7 -12 28 l8 37 -26 -16 c-14 -10 -28 -17 -31 -17 -7 0 -6
35 2 43 3 4 8 19 9 34 l3 28 -23 -28 c-20 -25 -27 -27 -62 -21 -30 4 -43 2
-53 -10 -21 -25 -33 -19 -26 14 7 32 -5 39 -25 15 -7 -8 -17 -15 -23 -15 -6 0
-18 -7 -28 -16 -26 -23 -48 -12 -42 21 5 24 3 25 -21 19 -21 -5 -26 -3 -26 11
0 14 -3 15 -15 5 -8 -6 -19 -9 -24 -6 -5 4 -12 2 -16 -4 -3 -5 -13 -10 -21
-10 -12 0 -12 4 -4 20 14 27 4 25 -32 -5 -16 -14 -34 -25 -39 -25 -11 0 -11
21 0 39 5 8 7 20 4 28 -7 17 -43 17 -43 0 0 -18 -27 -53 -35 -45 -4 3 -1 16 5
28 13 23 -1 52 -14 31 -4 -6 -14 -11 -21 -11 -20 0 -7 28 16 35 10 4 19 9 19
13 0 12 -63 6 -95 -8 -43 -19 -85 -21 -85 -4 0 20 -14 17 -34 -5 -12 -13 -31
-20 -57 -19 -32 0 -39 4 -39 21 0 18 -2 18 -25 -7 -13 -14 -29 -26 -35 -26
-15 0 -24 27 -15 48 9 21 13 62 5 62 -13 -1 -40 -29 -40 -42 0 -15 -30 -48
-43 -48 -12 0 -7 23 8 40 14 15 12 17 -17 15 -18 0 -48 -9 -65 -18 -32 -17
-33 -17 -33 1 0 15 -6 18 -32 14 -28 -4 -30 -2 -25 17 3 11 3 21 1 21 -12 0
-128 -42 -144 -52 -28 -18 -37 -1 -17 34 17 29 15 48 -4 48 -6 0 -33 -24 -60
-52 -37 -38 -49 -47 -46 -32 8 36 -6 47 -39 29 -35 -18 -43 -5 -20 30 9 14 15
25 12 25 -19 0 -90 -40 -143 -81 -63 -48 -83 -54 -83 -23 0 8 -4 12 -10 9 -5
-3 -10 -1 -10 4 0 6 7 11 15 11 8 0 19 9 25 20 9 17 7 22 -13 31 -20 9 -30 8
-50 -5 -19 -13 -26 -14 -29 -4 -3 9 -13 6 -33 -10 -18 -14 -42 -22 -68 -22
-24 0 -48 -7 -59 -17 -10 -9 -33 -17 -52 -18 -19 -1 -42 -10 -51 -19 -16 -16
-56 -23 -54 -8 2 16 -14 52 -23 52 -6 0 -8 14 -6 30 3 17 3 30 1 30 -1 0 -26
-22 -55 -49 -52 -49 -82 -65 -36 -19 39 39 -5 35 -68 -6 -74 -49 -94 -46 -58
10 27 40 7 41 -35 0 -41 -40 -70 -42 -50 -4 12 21 12 21 -16 0 -15 -12 -37
-22 -47 -22 -16 0 -19 5 -14 25 8 30 2 31 -31 5 -43 -33 -87 -18 -51 18 20 20
0 26 -27 8 -14 -9 -34 -14 -44 -11 -10 3 -35 -2 -57 -12 -21 -9 -42 -17 -46
-17 -3 -1 -10 -4 -14 -8 -4 -5 -12 -8 -18 -8 -6 0 -6 4 2 12 16 16 -30 39 -82
41 -30 1 -42 -4 -54 -21 -14 -21 -40 -33 -27 -12 3 6 -5 10 -19 10 -13 0 -31
3 -40 6 -18 7 -22 39 -6 49 12 7 14 26 3 24 -5 -1 -26 -10 -48 -22z m1521 -44
c-10 -10 -19 5 -10 18 6 11 8 11 12 0 2 -7 1 -15 -2 -18z m324 -13 c0 -5 -5
-10 -11 -10 -5 0 -7 5 -4 10 3 6 8 10 11 10 2 0 4 -4 4 -10z m-4820 -23 c0
-14 -20 -37 -32 -37 -12 0 -10 24 4 38 16 16 28 15 28 -1z m1220 4 c0 -23 -14
-41 -31 -41 -23 0 -24 8 -2 32 17 19 33 24 33 9z m1450 -11 c0 -5 -5 -10 -11
-10 -5 0 -7 5 -4 10 3 6 8 10 11 10 2 0 4 -4 4 -10z m-1100 -20 c0 -5 -5 -10
-11 -10 -5 0 -7 5 -4 10 3 6 8 10 11 10 2 0 4 -4 4 -10z m1146 -6 c-3 -9 -6
-18 -6 -20 0 -2 -7 -4 -15 -4 -13 0 -14 4 -5 20 13 24 35 27 26 4z m-3176 -14
c0 -20 -25 -38 -36 -27 -8 7 15 47 26 47 6 0 10 -9 10 -20z m4106 -17 c-10
-10 -19 5 -10 18 6 11 8 11 12 0 2 -7 1 -15 -2 -18z m1579 17 c-3 -5 -11 -10
-16 -10 -6 0 -7 5 -4 10 3 6 11 10 16 10 6 0 7 -4 4 -10z m-5858 -47 c-15 -16
-17 -16 -17 -1 0 9 6 18 13 21 20 7 22 -2 4 -20z m913 8 c0 -6 -4 -13 -10 -16
-5 -3 -10 1 -10 9 0 9 5 16 10 16 6 0 10 -4 10 -9z m5443 -63 c-13 -12 -25
-19 -29 -15 -10 10 16 37 34 37 13 0 12 -4 -5 -22z m-7142 -141 c-16 -16 -26
0 -10 19 9 11 15 12 17 4 2 -6 -1 -17 -7 -23z m179 29 c0 -3 -4 -8 -10 -11 -5
-3 -10 -1 -10 4 0 6 5 11 10 11 6 0 10 -2 10 -4z m-490 -157 c0 -20 -21 -49
-35 -49 -20 0 -19 19 2 42 18 20 33 24 33 7z m-154 -126 c-10 -10 -19 5 -10
18 6 11 8 11 12 0 2 -7 1 -15 -2 -18z m8624 -142 c0 -6 -4 -13 -10 -16 -5 -3
-10 1 -10 9 0 9 5 16 10 16 6 0 10 -4 10 -9z m-8905 -131 c-3 -5 -11 -10 -16
-10 -6 0 -7 5 -4 10 3 6 11 10 16 10 6 0 7 -4 4 -10z m-275 -314 c0 -17 -14
-29 -23 -20 -8 8 3 34 14 34 5 0 9 -6 9 -14z m4370 -105 c-11 -22 -30 -28 -30
-11 0 6 5 10 10 10 6 0 10 8 10 18 0 10 3 22 8 26 12 13 14 -21 2 -43z m378
-8 c-5 -25 -28 -28 -28 -4 0 12 6 21 16 21 9 0 14 -7 12 -17z m-44 -47 c4 -18
2 -44 -2 -57 -8 -21 -5 -27 24 -46 37 -26 64 -21 64 11 1 52 31 57 53 8 10
-25 11 -24 17 28 3 38 9 55 19 55 30 0 37 -99 8 -117 -6 -4 -8 -11 -3 -15 4
-4 13 0 20 10 19 25 36 21 47 -13 12 -32 29 -32 29 1 0 11 6 22 14 25 8 3 14
18 14 33 -1 34 19 73 35 68 7 -2 16 -21 22 -43 5 -21 15 -45 22 -52 7 -7 13
-19 14 -25 0 -7 5 -1 10 13 10 24 11 24 24 7 13 -18 14 -18 25 3 9 16 9 25 0
35 -16 19 -9 60 10 60 10 0 15 -10 14 -32 -1 -23 2 -30 12 -26 10 4 14 -4 14
-31 0 -20 3 -36 8 -36 4 0 22 14 40 31 17 16 36 28 41 25 5 -3 11 1 15 9 8 23
25 18 36 -10 6 -14 15 -37 20 -51 16 -41 40 -13 40 46 0 27 3 55 6 64 13 33
24 14 24 -38 0 -54 12 -80 24 -51 3 8 15 15 26 15 11 0 23 7 26 15 4 8 10 15
14 15 15 0 21 -38 9 -58 -14 -23 -6 -52 15 -52 9 0 18 16 23 43 6 31 14 43 29
45 12 2 25 15 31 33 12 30 12 30 46 15 33 -13 35 -13 40 6 8 28 31 17 37 -18
5 -24 7 -26 13 -10 6 15 10 16 22 6 8 -7 15 -20 15 -29 0 -9 5 -23 10 -31 8
-12 12 -11 30 8 28 30 45 28 60 -8 15 -36 31 -30 24 10 -5 21 -1 33 15 46 12
10 21 27 21 37 0 10 6 17 13 15 6 -3 21 -42 33 -89 12 -46 26 -84 33 -83 6 1
15 2 19 3 11 1 30 63 37 123 7 52 23 72 32 39 3 -12 13 -21 24 -21 13 0 19 -7
19 -23 0 -29 29 -68 36 -49 9 19 32 14 39 -8 3 -11 10 -20 15 -20 5 0 16 -3
26 -7 15 -5 16 -2 11 23 -3 17 -2 36 3 44 7 11 13 9 29 -11 10 -13 22 -37 25
-52 9 -46 31 -27 34 30 2 28 9 56 16 62 11 9 15 2 20 -34 8 -48 16 -54 36 -30
12 14 15 14 31 -1 11 -10 19 -28 19 -41 0 -12 5 -23 10 -23 10 0 15 41 11 97
-1 17 3 34 8 37 5 3 7 -3 4 -14 -3 -12 1 -22 10 -26 8 -3 21 -20 28 -37 26
-66 69 -92 61 -37 -9 65 29 114 44 55 7 -29 5 -28 39 -15 22 8 26 15 23 35 -3
14 1 30 8 36 10 8 18 3 34 -23 11 -18 20 -37 20 -43 0 -5 12 -21 25 -34 l25
-23 0 31 c0 20 7 34 19 41 30 15 32 13 26 -22 -7 -40 9 -72 25 -48 7 12 13 12
27 4 13 -8 19 -26 21 -68 2 -41 7 -56 17 -56 10 0 15 10 15 29 0 36 31 77 52
68 9 -3 19 -19 23 -36 7 -32 25 -52 25 -28 0 18 38 53 47 43 4 -4 8 -29 9 -57
1 -28 7 -56 13 -62 10 -9 11 0 7 43 -10 84 31 143 46 68 12 -63 23 -83 43 -83
16 0 21 -8 24 -40 l5 -40 5 40 c5 36 9 40 36 41 45 1 75 -31 75 -81 0 -22 -6
-47 -12 -54 -11 -11 -10 -13 5 -7 10 3 25 6 32 6 8 0 20 12 27 27 7 14 19 29
27 31 11 4 13 -4 7 -37 -7 -43 -3 -47 40 -35 11 3 25 19 32 36 15 42 38 32 34
-15 -3 -31 0 -37 16 -37 15 0 21 -9 26 -35 4 -19 12 -35 18 -35 6 0 8 -11 6
-25 -7 -33 -2 -32 17 6 11 20 21 29 32 25 9 -4 17 1 20 14 7 28 23 25 23 -4 0
-14 5 -28 11 -32 6 -3 17 -22 25 -40 9 -22 21 -34 33 -34 26 0 35 -25 32 -94
-3 -66 13 -74 38 -18 8 18 22 32 31 32 9 0 21 5 28 12 19 19 27 -20 8 -41 -9
-10 -16 -33 -16 -52 0 -19 -7 -47 -15 -63 l-15 -29 30 6 c21 5 32 2 40 -11 8
-13 9 -6 5 28 -6 50 5 76 29 67 11 -5 16 -19 16 -49 0 -35 4 -45 23 -53 16 -7
23 -20 25 -47 3 -35 5 -37 32 -31 28 5 30 3 41 -41 6 -25 17 -46 23 -46 9 0
10 -16 6 -55 -7 -66 -6 -143 4 -152 3 -3 17 4 30 16 16 15 26 19 31 11 5 -8
12 -7 25 5 14 12 23 13 45 5 26 -10 27 -13 23 -62 -3 -28 -12 -56 -19 -62 -17
-13 -42 -66 -31 -66 4 0 16 15 27 33 36 61 58 58 48 -8 -4 -33 -2 -48 10 -60
9 -8 14 -22 10 -30 -3 -9 0 -22 6 -29 7 -8 11 -34 10 -58 -2 -24 -2 -63 0 -88
l2 -45 19 43 c23 50 40 54 40 9 0 -18 5 -38 10 -43 7 -7 7 -27 -1 -63 -8 -39
-8 -55 1 -66 9 -10 8 -19 -1 -37 l-13 -23 -7 25 c-8 28 -8 28 -15 -55 -8 -108
-11 -124 -22 -138 -9 -11 -7 -13 11 -13 20 1 22 -3 20 -44 -1 -25 1 -35 4 -22
2 12 9 22 14 22 5 0 14 11 19 25 12 32 30 32 30 0 0 -36 -31 -97 -47 -91 -7 3
-13 -2 -13 -11 0 -9 -12 -36 -26 -60 -33 -56 -57 -145 -41 -155 8 -4 7 -11 -2
-22 -7 -9 -17 -14 -21 -11 -11 7 -42 -37 -32 -46 4 -4 20 -5 35 -2 21 4 34 18
52 54 45 87 59 73 25 -26 -23 -67 -25 -84 -8 -67 16 16 28 15 28 -3 0 -9 -7
-18 -15 -21 -11 -5 -13 -10 -5 -19 8 -10 6 -23 -10 -51 -27 -52 -27 -68 1 -52
17 11 22 10 35 -6 19 -26 17 -52 -6 -104 -11 -24 -19 -60 -19 -80 1 -35 -45
-161 -76 -209 -8 -12 -15 -27 -15 -33 0 -19 15 -10 32 20 23 40 53 41 43 3
-19 -68 1 -100 24 -38 7 19 17 35 22 35 18 0 9 -80 -16 -134 -14 -30 -25 -65
-25 -78 0 -13 -7 -33 -15 -44 -8 -10 -15 -28 -15 -39 0 -11 -12 -38 -25 -60
-28 -46 -31 -65 -10 -65 18 0 50 58 46 86 -3 25 23 51 34 34 4 -7 0 -19 -8
-28 -14 -13 -14 -17 -2 -26 11 -9 11 -21 0 -71 -7 -33 -16 -67 -20 -77 -5 -11
-1 -16 12 -15 19 2 21 -13 8 -47 -7 -15 -5 -17 13 -12 17 6 23 2 28 -18 4 -19
-2 -38 -25 -73 -34 -51 -34 -67 1 -37 21 19 21 19 13 -1 -4 -11 -12 -42 -16
-70 -4 -27 -11 -62 -14 -77 -11 -43 12 -34 25 10 19 56 28 59 35 10 7 -48 -10
-99 -41 -116 -16 -9 -19 -42 -12 -132 3 -33 9 -55 16 -54 27 2 31 5 37 24 3
11 13 20 20 20 11 0 10 -8 -5 -33 -15 -26 -70 -169 -70 -183 0 -1 9 0 19 3 15
4 21 -2 26 -26 3 -17 4 -40 0 -51 -8 -25 3 -60 18 -57 23 4 17 -35 -11 -71
-16 -20 -32 -52 -35 -70 -6 -29 -5 -32 12 -23 17 9 19 4 25 -71 4 -52 3 -85
-4 -92 -15 -15 -12 -30 3 -17 8 6 17 7 21 3 4 -4 18 -7 29 -7 16 0 21 -5 19
-20 -10 -75 -21 -116 -41 -144 -13 -18 -25 -50 -28 -72 -3 -22 -10 -42 -14
-45 -12 -7 -12 -24 0 -24 5 0 11 9 14 20 3 11 13 23 24 27 10 3 22 12 26 20 4
7 12 13 17 13 15 0 12 -26 -5 -40 -28 -23 -57 -103 -52 -143 3 -24 1 -40 -7
-45 -15 -8 -40 -52 -34 -57 10 -10 48 9 48 24 0 24 59 92 60 68 0 -27 -39 -97
-54 -97 -22 0 -41 -102 -24 -129 10 -17 9 -26 -5 -55 -16 -36 -14 -96 4 -96
14 0 10 -37 -5 -50 -8 -6 -20 -28 -27 -48 -7 -20 -22 -53 -34 -72 -27 -44 -65
-128 -65 -146 0 -7 -11 -39 -25 -70 -14 -31 -25 -62 -25 -68 1 -23 50 46 50
70 0 29 16 64 30 64 14 0 12 -20 -3 -51 -8 -14 -14 -40 -15 -58 0 -18 -7 -40
-15 -50 -19 -21 -30 -58 -29 -96 1 -32 -28 -87 -65 -122 -13 -12 -23 -34 -23
-48 0 -33 -32 -96 -81 -161 -42 -55 -46 -64 -26 -64 8 0 19 12 26 26 13 29 61
84 73 84 5 0 8 -11 8 -24 0 -30 -39 -88 -68 -101 -12 -5 -22 -16 -22 -24 0
-18 -48 -81 -61 -81 -16 0 -65 -53 -73 -77 -4 -12 -13 -27 -21 -33 -8 -7 -15
-25 -15 -40 0 -29 -23 -56 -39 -46 -10 7 -38 -29 -63 -79 -8 -16 -19 -39 -26
-50 -6 -11 -19 -37 -28 -57 -9 -21 -21 -38 -28 -38 -6 0 -19 -15 -29 -32 -18
-31 -20 -32 -32 -15 -11 15 -18 16 -33 8 -11 -6 -22 -18 -26 -27 -3 -9 -12
-14 -20 -11 -12 5 -42 -47 -60 -106 -3 -9 -16 -21 -30 -27 -13 -5 -25 -13 -27
-19 -3 -8 -16 -8 -42 0 -32 9 -42 8 -56 -5 -24 -22 -31 -20 -31 9 0 35 -10 31
-53 -20 -21 -25 -47 -49 -58 -55 -18 -10 -19 -9 -13 14 9 37 -19 34 -48 -5
-16 -22 -29 -29 -45 -26 -15 3 -32 -6 -54 -29 -17 -18 -37 -30 -45 -27 -7 2
-28 -7 -47 -21 -42 -32 -97 -45 -97 -23 0 8 -6 17 -14 20 -16 6 -87 -17 -123
-40 -20 -13 -29 -14 -44 -5 -15 10 -24 9 -44 -4 -14 -9 -39 -14 -59 -13 -20 2
-41 -2 -48 -9 -17 -17 -48 -15 -48 2 0 8 5 18 10 21 6 3 10 10 10 16 0 17 -28
9 -58 -16 -35 -30 -52 -32 -52 -7 0 29 -8 31 -55 17 -24 -8 -45 -12 -47 -9 -3
2 -13 -5 -23 -16 -27 -29 -32 -25 -30 25 1 35 -2 42 -12 34 -7 -6 -11 -16 -10
-22 1 -7 -9 -11 -24 -9 -16 2 -29 -3 -32 -11 -6 -17 -94 -53 -104 -43 -4 4 0
19 9 34 16 26 16 29 0 38 -12 8 -27 6 -57 -7 -22 -10 -47 -19 -55 -19 -8 0
-26 -9 -40 -20 -32 -25 -43 -25 -35 0 6 20 -9 28 -20 10 -10 -16 -25 -12 -19
5 4 9 0 15 -9 15 -8 0 -20 -7 -27 -15 -7 -8 -23 -15 -37 -15 -20 0 -23 4 -18
21 7 20 6 20 -22 3 -15 -10 -42 -31 -60 -47 -21 -20 -38 -28 -52 -24 -12 3
-24 1 -27 -4 -3 -5 -10 -9 -16 -9 -11 0 -7 63 7 94 7 17 5 18 -21 12 -16 -4
-40 -15 -53 -24 -71 -51 -114 -73 -121 -62 -5 9 -16 7 -39 -4 -17 -9 -35 -14
-40 -12 -5 3 -14 -1 -21 -9 -7 -8 -16 -15 -21 -15 -18 0 -8 22 23 51 36 32 36
33 -10 19 -17 -6 -46 -14 -63 -20 -30 -9 -31 -8 -25 15 7 27 -3 32 -22 13 -9
-9 -12 -6 -12 15 0 35 -14 34 -52 -3 -16 -17 -38 -30 -49 -30 -22 0 -23 4 -9
31 7 12 7 19 1 19 -6 0 -15 -9 -21 -20 -6 -11 -15 -20 -21 -20 -5 0 -22 -9
-37 -20 -33 -25 -66 -18 -59 12 5 18 4 18 -19 3 -22 -14 -25 -14 -30 0 -5 12
-16 7 -55 -26 -45 -38 -54 -40 -49 -14 1 6 -4 4 -11 -3 -7 -6 -19 -12 -26 -12
-20 0 -3 31 23 41 13 4 24 13 24 20 0 6 -14 2 -33 -10 -18 -11 -45 -25 -61
-31 l-28 -10 6 35 c8 40 4 42 -31 15 -34 -26 -46 -25 -37 2 6 20 5 21 -9 10
-9 -8 -21 -11 -27 -7 -6 4 -21 -2 -33 -13 -27 -23 -88 -54 -95 -47 -3 3 5 19
17 36 28 38 22 46 -19 23 -26 -16 -32 -17 -40 -5 -7 12 -14 9 -40 -12 -17 -15
-36 -27 -41 -27 -11 0 -2 38 13 58 12 14 -3 16 -30 3 -52 -26 -93 -40 -107
-35 -8 3 -26 -4 -41 -15 -15 -12 -35 -21 -45 -21 -9 0 -19 -6 -22 -12 -2 -7
-8 -9 -13 -5 -5 5 -1 14 8 21 10 7 21 28 24 47 7 33 6 33 -12 18 -10 -9 -30
-19 -44 -22 -14 -3 -34 -8 -46 -12 -13 -4 -27 -1 -37 10 -11 10 -25 13 -41 9
-21 -5 -24 -3 -19 15 8 29 -19 27 -48 -4 -38 -40 -90 -26 -73 19 4 12 -1 11
-30 -2 -20 -9 -36 -21 -36 -28 0 -6 -12 -14 -27 -17 -35 -7 -45 2 -13 10 22 6
22 7 5 13 -18 6 -16 10 15 39 l35 32 -35 -12 c-19 -7 -53 -25 -74 -41 -43 -31
-66 -36 -66 -13 0 35 -41 5 -65 -48 -11 -23 -24 -37 -36 -37 -23 0 -25 13 -4
30 16 13 21 50 7 50 -4 0 -21 -15 -37 -32 -24 -28 -30 -30 -33 -15 -2 10 2 24
8 32 7 8 8 15 3 15 -20 0 -71 -31 -77 -47 -4 -9 -9 -14 -12 -11 -2 3 7 27 21
53 14 27 23 50 20 53 -3 3 -27 -7 -54 -21 -27 -15 -56 -27 -64 -27 -9 0 -19
-9 -22 -20 -4 -11 -15 -20 -26 -20 -17 0 -18 3 -9 20 15 27 -13 27 -47 0 -14
-11 -32 -20 -40 -20 -7 0 -25 -7 -39 -16 -27 -19 -43 -12 -25 10 16 20 -17 31
-38 13 -26 -23 -51 -28 -57 -13 -4 12 -9 11 -25 -5 -24 -24 -39 -24 -39 1 0
14 -9 21 -35 26 -19 3 -35 10 -35 15 0 16 -20 10 -27 -8 -7 -19 -43 -52 -56
-53 -5 0 -1 10 7 22 22 32 20 39 -10 28 -41 -16 -57 -13 -51 10 6 24 -10 26
-60 8 -38 -14 -52 -6 -32 18 12 15 11 16 -19 10 -34 -8 -42 3 -17 24 21 17 9
31 -18 21 -12 -4 -44 -8 -70 -9 l-48 0 15 24 c26 39 18 50 -14 19 -32 -31 -48
-29 -31 3 15 28 14 30 -15 29 -15 0 -30 7 -35 14 -7 11 -12 12 -26 1 -10 -6
-28 -16 -40 -21 -11 -6 -24 -15 -28 -20 -10 -18 -25 -12 -25 9 0 14 -7 20 -21
20 -15 0 -19 4 -15 16 14 36 18 64 8 64 -5 0 -29 -7 -53 -15 -24 -9 -49 -13
-56 -11 -7 3 -24 1 -38 -4 -34 -13 -41 4 -13 31 l23 22 -27 -7 c-23 -5 -26 -3
-21 11 5 12 2 15 -9 11 -8 -4 -40 -9 -71 -13 -48 -6 -57 -5 -57 8 0 8 12 25
28 37 l27 21 -35 -5 c-19 -3 -45 -8 -57 -12 -21 -6 -22 -4 -19 32 2 22 7 48
12 59 7 20 7 20 -14 1 -27 -24 -42 -13 -18 13 21 23 6 37 -23 21 -23 -12 -61
-13 -61 -2 0 5 7 17 15 28 20 27 19 32 -10 26 -15 -2 -25 0 -25 7 0 16 -63 14
-86 -4 -18 -14 -64 -21 -64 -10 0 3 10 22 23 43 35 56 41 76 20 67 -10 -3 -31
-9 -48 -12 -16 -3 -34 -9 -40 -13 -16 -11 -65 -18 -65 -9 0 5 9 13 20 19 26
14 25 28 -2 32 -21 3 -21 4 8 38 65 77 67 72 -23 66 -87 -5 -114 2 -88 24 8 7
15 27 15 45 l0 32 -55 -1 c-39 -1 -55 2 -55 11 0 7 6 13 13 13 23 0 40 45 33
84 -8 40 -13 43 -42 21 -19 -14 -54 -20 -54 -9 0 3 11 20 25 38 30 40 31 46 4
46 -15 0 -19 5 -15 16 4 11 -2 10 -25 -6 -34 -25 -50 -19 -31 10 19 32 15 40
-20 33 -28 -6 -31 -4 -23 13 5 10 9 30 9 44 1 14 5 30 9 37 4 7 0 14 -10 17
-21 7 -44 52 -37 71 3 7 12 16 20 19 23 9 16 26 -11 26 -22 0 -25 4 -25 34 0
37 -14 56 -24 31 -3 -8 -10 -15 -16 -15 -15 0 -12 27 7 56 12 19 18 22 24 12
6 -9 11 -6 17 12 7 17 6 26 -2 29 -6 2 -14 9 -18 15 -5 8 -11 7 -20 -2 -16
-16 -28 -15 -28 3 0 8 -7 15 -15 15 -19 0 -19 0 1 40 9 18 17 57 18 87 l1 55
-20 -26 c-29 -37 -53 -34 -47 4 2 17 8 33 13 36 5 3 9 14 9 25 0 11 7 34 16
50 20 39 11 49 -19 21 -13 -12 -29 -22 -35 -22 -20 0 -13 50 12 83 12 18 26
40 29 49 5 15 2 16 -19 8 -34 -13 -44 13 -15 44 21 22 29 56 12 56 -5 0 -11
14 -15 32 -4 23 0 42 18 72 14 23 24 48 24 56 -3 40 3 60 17 60 8 0 15 9 15
20 0 23 -15 27 -24 5 -3 -8 -17 -15 -32 -15 -26 0 -26 1 -11 18 10 10 17 24
17 30 0 7 7 12 15 12 20 0 20 40 0 87 -14 32 -14 38 0 53 19 21 19 30 0 30
-19 0 -19 20 0 48 14 20 14 21 0 16 -9 -4 -15 -1 -15 7 0 25 26 88 43 107 23
25 21 35 -3 27 -23 -7 -26 4 -7 24 10 11 10 14 0 18 -19 7 -16 33 7 71 25 40
25 42 0 42 -28 0 -36 27 -16 49 9 10 21 32 25 49 8 25 6 31 -10 35 -15 4 -18
10 -11 29 5 12 7 29 5 36 -3 7 3 23 13 34 19 21 19 21 -8 14 -39 -9 -44 10
-12 55 23 34 25 42 13 49 -11 8 -12 13 -2 29 8 13 9 22 3 26 -6 4 -7 13 -1 22
4 9 6 23 4 33 -3 10 5 23 21 34 38 24 32 38 -9 19 -28 -13 -37 -14 -50 -3 -21
18 -19 30 14 82 24 38 26 45 11 41 -28 -7 -34 16 -11 41 12 12 21 28 21 34 0
14 -36 52 -50 52 -6 0 -7 19 -4 48 8 64 12 75 27 69 10 -4 13 6 12 37 -1 22 2
49 7 59 7 13 4 17 -11 17 -11 0 -23 5 -26 10 -4 6 -11 8 -16 5 -20 -13 -8 37
15 60 20 20 22 26 10 36 -21 17 -17 69 7 95 20 21 20 21 0 57 -17 31 -18 37
-5 56 9 12 12 27 8 33 -4 7 -9 37 -11 68 -1 30 -4 82 -7 115 -2 33 0 69 4 80
5 13 2 24 -9 31 -13 11 -12 17 14 54 23 33 26 43 15 50 -9 6 -11 23 -7 64 6
56 1 66 -21 44 -19 -19 -15 38 4 67 9 14 14 34 11 45 -5 21 12 27 28 11 6 -6
10 8 10 39 0 38 -4 50 -17 53 -14 4 -16 16 -13 81 1 42 -1 74 -6 71 -4 -3 -13
3 -18 13 -8 15 -5 24 14 42 30 28 32 40 5 33 -29 -8 -26 28 5 57 30 28 32 40
5 40 -30 0 -24 16 15 40 19 12 35 26 35 31 0 6 -13 22 -28 37 -41 38 -46 59
-22 99 22 38 26 63 9 63 -7 0 -9 11 -6 28 3 15 2 34 -3 42 -6 9 -3 18 8 26 13
10 15 17 6 31 -8 13 -7 26 2 48 19 44 18 64 -4 58 -13 -3 -25 5 -37 23 -16 25
-16 28 -2 39 9 6 20 31 26 55 5 23 13 46 18 49 5 3 14 22 19 42 9 29 8 38 -4
45 -12 8 -13 14 -3 32 6 12 16 22 21 22 6 0 10 20 10 45 0 39 3 47 25 55 21 8
25 15 21 42 -2 18 -7 41 -11 50 -4 11 1 31 14 51 12 19 21 42 21 51 0 9 7 16
15 16 8 0 15 9 15 20 0 11 5 20 10 20 6 0 10 4 10 9 0 5 -9 7 -20 4 -30 -8
-26 29 6 44 21 10 26 9 31 -5 16 -51 26 -71 39 -76 19 -7 18 -2 -8 73 -21 59
-21 64 -5 76 11 8 15 19 11 29 -4 11 1 24 14 37 27 24 32 24 32 -3 0 -13 5
-30 10 -38 7 -11 10 1 10 42 0 31 5 60 10 63 6 3 10 26 10 51 0 53 11 57 28
10 7 -19 21 -36 32 -39 11 -3 25 -16 30 -29 8 -18 9 -7 6 45 -4 74 5 93 24 47
7 -17 19 -30 26 -30 17 0 17 0 -1 44 -18 43 -12 60 19 52 21 -5 22 -3 18 54
-4 48 -2 60 10 60 11 0 19 19 28 63 l13 62 13 -30 c11 -24 13 -26 15 -10 1 11
1 35 0 53 -3 39 2 39 46 6 26 -19 33 -22 33 -9 0 8 6 24 12 35 11 16 9 22 -6
33 -11 8 -16 19 -12 25 10 17 26 15 26 -3 0 -18 26 -20 33 -2 3 8 10 6 21 -8
13 -17 15 -18 16 -3 0 9 -5 18 -10 20 -15 5 -17 80 -3 85 7 2 15 -7 18 -20 4
-14 13 -24 23 -23 10 1 20 -14 29 -44 22 -76 23 -76 38 -46 11 20 12 33 5 46
-13 24 -13 60 0 60 5 0 12 -17 15 -37 9 -53 13 -63 25 -63 10 0 9 26 -5 95 -2
11 0 27 5 35 9 13 11 13 20 0 8 -12 10 -10 10 10 1 41 14 54 50 47 30 -6 31
-5 28 23 -2 16 2 30 7 32 6 2 11 -8 13 -22 7 -58 52 -115 52 -67 0 7 9 18 20
25 17 10 18 16 10 32 -6 11 -8 25 -5 30 3 5 1 11 -5 15 -12 8 -13 55 0 75 7
11 11 9 19 -14 6 -15 9 -31 6 -36 -3 -4 1 -20 9 -35 14 -26 15 -26 25 -7 6 12
11 32 11 45 0 27 20 49 41 45 8 -2 15 7 17 20 5 32 29 27 37 -8 4 -16 13 -30
20 -30 7 0 16 -7 19 -16 8 -20 25 -9 37 24 10 27 11 27 26 7 14 -19 15 -18 9
16 -5 26 -2 40 8 48 26 21 36 2 36 -64 0 -35 5 -67 11 -70 18 -12 22 3 10 34
-10 23 -10 34 1 52 7 13 14 25 14 27 1 1 13 -2 28 -7 23 -10 26 -8 26 13 0 12
7 38 16 56 12 24 19 29 25 19 5 -8 9 -23 9 -34 0 -11 14 -33 30 -49 17 -16 30
-33 30 -38 0 -4 6 -8 14 -8 11 0 13 9 9 35 -4 22 -2 35 5 35 17 0 39 -40 47
-85 3 -22 13 -51 21 -65 10 -17 13 -18 9 -5 -31 90 -45 215 -25 215 6 0 10 -6
10 -13 0 -16 57 -41 88 -38 12 1 25 -5 28 -14 11 -29 24 -15 24 26 0 44 14 45
33 1 l11 -27 4 33 c5 45 25 36 34 -16 13 -77 27 -84 28 -14 0 75 20 82 32 12
11 -66 18 -60 18 16 0 38 4 75 9 83 10 16 31 6 31 -15 0 -8 5 -14 10 -14 6 0
10 7 10 15 0 30 29 15 35 -19 7 -33 8 -34 56 -34 53 0 58 6 34 52 -15 27 -12
51 5 41 4 -3 11 7 14 20 4 15 11 23 17 19 6 -3 8 -17 4 -31 -10 -40 3 -64 30
-57 18 4 25 1 30 -15 3 -12 10 -21 15 -21 5 0 16 -12 24 -27 8 -16 15 -21 16
-13 0 8 9 30 20 48 l20 33 33 -25 c35 -27 57 -21 57 15 0 33 23 33 52 0 15
-17 28 -26 28 -20 0 6 10 9 23 7 12 -2 27 4 34 12 9 12 14 13 24 3 7 -7 21
-13 30 -13 13 0 19 -10 21 -37 3 -41 28 -59 28 -21 0 33 15 54 25 37 6 -9 10
-8 15 6 4 11 18 22 31 25 17 5 23 13 22 28 -2 12 2 22 7 22 6 0 10 -20 10 -44
0 -57 11 -64 35 -20 13 25 24 34 37 31 14 -4 18 1 18 19 0 13 5 24 10 24 6 0
10 -10 10 -23 0 -12 9 -28 19 -34 17 -11 21 -9 26 9 5 13 2 24 -6 29 -11 7
-11 9 2 9 20 0 59 -36 59 -55 0 -8 5 -15 10 -15 6 0 10 4 10 9 0 9 45 24 56
19 3 -2 12 9 20 25 19 36 30 34 44 -9 l12 -36 23 28 22 28 18 -21 c10 -12 24
-19 31 -16 8 3 17 -2 20 -11 9 -25 20 -19 19 11 0 35 19 40 33 8 14 -31 32
-24 32 11 0 14 4 22 10 19 6 -3 10 -17 10 -31 0 -14 4 -22 10 -19 6 3 10 17
10 30 0 31 20 43 27 16 5 -19 7 -20 18 -5 9 13 16 14 32 6 15 -8 19 -18 15
-42 l-4 -32 49 50 c28 28 53 62 57 76 9 37 33 32 40 -8z m526 14 c0 -5 -4 -10
-10 -10 -5 0 -10 5 -10 10 0 6 5 10 10 10 6 0 10 -4 10 -10z m-2100 -31 c0
-38 -24 -35 -28 4 -2 19 1 27 12 27 11 0 16 -10 16 -31z m1068 19 c-6 -18 -28
-21 -28 -4 0 9 7 16 16 16 9 0 14 -5 12 -12z m732 -3 c0 -8 -4 -15 -10 -15 -5
0 -10 7 -10 15 0 8 5 15 10 15 6 0 10 -7 10 -15z m-1245 -5 c3 -5 1 -10 -4
-10 -6 0 -11 5 -11 10 0 6 2 10 4 10 3 0 8 -4 11 -10z m35 -15 c0 -8 -4 -15
-10 -15 -5 0 -10 7 -10 15 0 8 5 15 10 15 6 0 10 -7 10 -15z m1872 -37 c-15
-15 -24 -6 -16 16 5 12 10 14 17 7 8 -8 8 -14 -1 -23z m-2882 -28 c0 -27 -4
-50 -9 -50 -13 0 -24 55 -16 80 12 37 25 21 25 -30z m1060 35 c0 -8 -4 -15
-10 -15 -5 0 -10 7 -10 15 0 8 5 15 10 15 6 0 10 -7 10 -15z m3080 -20 c0 -14
-4 -25 -10 -25 -11 0 -14 33 -3 43 11 11 13 8 13 -18z m2792 -37 c-7 -7 -12
-8 -12 -2 0 14 12 26 19 19 2 -3 -1 -11 -7 -17z m-7244 -60 c-2 -12 -8 -23
-15 -25 -18 -6 -28 44 -12 63 11 14 13 14 21 -1 5 -8 8 -25 6 -37z m4782 16
c0 -8 -4 -14 -10 -14 -5 0 -10 9 -10 21 0 11 5 17 10 14 6 -3 10 -13 10 -21z
m-7406 -49 c-6 -16 -24 -21 -24 -7 0 11 11 22 21 22 5 0 6 -7 3 -15z m16 -22
c0 -5 -4 -15 -10 -23 -11 -18 -25 -7 -17 15 6 15 27 21 27 8z m-42 -69 c2 -21
-6 -38 -28 -61 -17 -18 -33 -33 -36 -33 -12 0 -2 40 16 60 11 13 20 34 20 47
0 35 24 23 28 -13z m1975 -159 c-6 -16 -16 -19 -26 -8 -9 8 13 34 24 28 4 -3
6 -12 2 -20z m6109 -107 c-13 -13 -26 8 -17 30 6 16 7 16 17 -1 7 -13 7 -22 0
-29z m-6307 -227 c3 -34 1 -60 -4 -57 -11 7 -24 103 -15 117 10 17 14 5 19
-60z m-99 -88 c-10 -10 -19 5 -10 18 6 11 8 11 12 0 2 -7 1 -15 -2 -18z m6694
18 c0 -6 -4 -13 -10 -16 -5 -3 -10 1 -10 9 0 9 5 16 10 16 6 0 10 -4 10 -9z
m110 -105 c0 -16 -18 -31 -27 -22 -8 8 5 36 17 36 5 0 10 -6 10 -14z m90 -96
c0 -5 -5 -10 -11 -10 -5 0 -7 5 -4 10 3 6 8 10 11 10 2 0 4 -4 4 -10z m-8690
-251 c-7 -11 -14 -18 -17 -15 -8 8 5 36 17 36 7 0 7 -6 0 -21z m8857 -136 c-3
-10 -8 -30 -11 -45 -7 -32 -26 -38 -26 -9 0 29 18 71 30 71 6 0 9 -8 7 -17z
m-8877 -283 c0 -11 -7 -20 -15 -20 -17 0 -18 2 -9 24 9 23 24 20 24 -4z m8950
-242 c0 -19 -18 -43 -25 -36 -9 9 4 48 16 48 5 0 9 -6 9 -12z m22 -80 c-7 -7
-12 -8 -12 -2 0 14 12 26 19 19 2 -3 -1 -11 -7 -17z m-32 -118 c0 -16 -23 -60
-32 -60 -11 0 -10 27 2 51 11 20 30 26 30 9z m-7500 -20 c0 -5 -4 -10 -10 -10
-5 0 -10 5 -10 10 0 6 5 10 10 10 6 0 10 -4 10 -10z m7411 -103 c-8 -8 -11 -7
-11 4 0 9 3 19 7 23 4 4 9 2 11 -4 3 -7 -1 -17 -7 -23z m69 23 c0 -5 -5 -10
-11 -10 -5 0 -7 5 -4 10 3 6 8 10 11 10 2 0 4 -4 4 -10z m-7502 -502 c-6 -18
-28 -21 -28 -4 0 9 7 16 16 16 9 0 14 -5 12 -12z m-1442 -165 c-10 -10 -19 5
-10 18 6 11 8 11 12 0 2 -7 1 -15 -2 -18z m42 -335 c-6 -18 -28 -21 -28 -4 0
9 7 16 16 16 9 0 14 -5 12 -12z m-18 -117 c0 -5 -7 -14 -15 -21 -12 -10 -15
-10 -15 2 0 8 3 18 7 21 9 10 23 9 23 -2z m8920 -655 c0 -17 -14 -29 -23 -20
-8 8 3 34 14 34 5 0 9 -6 9 -14z m-8918 -38 c-7 -7 -12 -8 -12 -2 0 14 12 26
19 19 2 -3 -1 -11 -7 -17z m8948 0 c0 -22 -17 -41 -29 -34 -8 5 -8 13 -1 27
12 21 30 26 30 7z m-59 -101 c-8 -8 -11 -4 -11 14 0 33 14 47 18 19 2 -12 -1
-27 -7 -33z m54 -476 c3 -5 1 -12 -5 -16 -5 -3 -10 1 -10 9 0 18 6 21 15 7z
m-8885 -29 c0 -13 -12 -22 -22 -16 -10 6 -1 24 13 24 5 0 9 -4 9 -8z m-83
-227 c-4 -8 -11 -15 -17 -15 -7 0 -7 6 0 21 13 23 26 19 17 -6z m9003 -324 c0
-6 -4 -13 -10 -16 -5 -3 -10 1 -10 9 0 9 5 16 10 16 6 0 10 -4 10 -9z m-7560
-72 c0 -6 -4 -7 -10 -4 -5 3 -10 11 -10 16 0 6 5 7 10 4 6 -3 10 -11 10 -16z
m-1410 -158 c0 -6 -4 -13 -10 -16 -5 -3 -10 1 -10 9 0 9 5 16 10 16 6 0 10 -4
10 -9z m50 -280 c0 -6 -4 -13 -10 -16 -5 -3 -10 1 -10 9 0 9 5 16 10 16 6 0
10 -4 10 -9z m10330 -102 c0 -5 -10 -9 -21 -9 -18 0 -19 2 -9 15 12 15 30 12
30 -6z m-10310 -74 c0 -22 -29 -75 -40 -75 -15 0 -12 38 6 65 18 28 34 33 34
10z m8770 -24 c0 -6 -4 -13 -10 -16 -5 -3 -10 1 -10 9 0 9 5 16 10 16 6 0 10
-4 10 -9z m-8854 -217 c-3 -9 -6 -18 -6 -20 0 -2 -7 -4 -15 -4 -18 0 -19 12
-3 28 17 17 31 15 24 -4z m8750 -317 c-32 -67 -53 -87 -67 -66 -23 36 7 109
45 109 8 0 17 8 20 17 5 12 10 13 18 5 8 -8 4 -25 -16 -65z m-186 -296 c0 -12
-31 -43 -37 -37 -6 6 20 46 29 46 5 0 8 -4 8 -9z m-70 -58 c0 -14 -19 -38 -25
-32 -8 8 5 39 16 39 5 0 9 -3 9 -7z m-8368 -78 c-20 -40 -28 -44 -27 -12 0 28
12 47 30 47 12 0 12 -6 -3 -35z m78 -215 c0 -21 -15 -27 -25 -10 -7 12 2 30
16 30 5 0 9 -9 9 -20z m-43 -22 c-3 -8 -6 -5 -6 6 -1 11 2 17 5 13 3 -3 4 -12
1 -19z m73 -2 c0 -8 -4 -17 -9 -21 -12 -7 -24 12 -16 25 9 15 25 12 25 -4z
m-25 -44 c0 -18 -20 -15 -23 4 -3 10 1 15 10 12 7 -3 13 -10 13 -16z m1949
-16 c-6 -15 -67 -66 -79 -66 -4 0 8 18 25 40 31 39 65 55 54 26z m-1940 -45
c6 -10 -22 -37 -29 -29 -8 7 5 38 15 38 5 0 11 -4 14 -9z m56 -106 c0 -17 -32
-65 -40 -60 -10 6 -3 32 13 53 10 12 27 17 27 7z m9908 -27 c-6 -18 -28 -21
-28 -4 0 9 7 16 16 16 9 0 14 -5 12 -12z m-9975 -48 c-3 -11 -9 -20 -14 -20
-10 0 -12 24 -2 33 13 13 21 7 16 -13z m7697 0 c-6 -11 -15 -18 -21 -14 -6 4
-6 11 2 20 17 21 31 17 19 -6z m-5188 -122 c-7 -7 -12 -8 -12 -2 0 6 3 14 7
17 3 4 9 5 12 2 2 -3 -1 -11 -7 -17z m4578 -47 c0 -6 -4 -13 -10 -16 -5 -3
-10 1 -10 9 0 9 5 16 10 16 6 0 10 -4 10 -9z m-3050 -31 c0 -5 -5 -10 -11 -10
-5 0 -7 5 -4 10 3 6 8 10 11 10 2 0 4 -4 4 -10z m1800 -4 c0 -16 -18 -31 -27
-22 -8 8 5 36 17 36 5 0 10 -6 10 -14z m682 -18 c-7 -7 -12 -8 -12 -2 0 14 12
26 19 19 2 -3 -1 -11 -7 -17z m-3085 -43 c-7 -16 -37 -21 -37 -5 0 10 32 31
39 25 2 -2 1 -11 -2 -20z m-3100 -367 c-3 -8 -6 -5 -6 6 -1 11 2 17 5 13 3 -3
4 -12 1 -19z m9233 7 c0 -8 -7 -15 -15 -15 -8 0 -15 7 -15 15 0 8 7 15 15 15
8 0 15 -7 15 -15z m-9264 -42 c-10 -10 -19 5 -10 18 6 11 8 11 12 0 2 -7 1
-15 -2 -18z m266 -125 c-9 -9 -12 -7 -12 12 0 19 3 21 12 12 9 -9 9 -15 0 -24z
m198 -332 c0 -42 -15 -54 -30 -26 -13 25 -4 60 16 60 9 0 14 -11 14 -34z
m8200 -71 c0 -8 -4 -15 -10 -15 -5 0 -10 7 -10 15 0 8 5 15 10 15 6 0 10 -7
10 -15z m-8030 -65 c0 -5 -4 -10 -10 -10 -5 0 -10 5 -10 10 0 6 5 10 10 10 6
0 10 -4 10 -10z m7830 -12 c0 -16 -3 -19 -11 -11 -6 6 -8 16 -5 22 11 17 16
13 16 -11z m-7402 -122 c6 -27 -8 -86 -18 -86 -6 0 -10 25 -10 56 0 40 3 55
13 52 6 -3 14 -13 15 -22z m958 -123 c-11 -11 -19 6 -11 24 8 17 8 17 12 0 3
-10 2 -21 -1 -24z m584 27 c0 -5 -2 -10 -4 -10 -3 0 -8 5 -11 10 -3 6 -1 10 4
10 6 0 11 -4 11 -10z m5168 -44 c3 -12 -1 -17 -10 -14 -7 3 -15 13 -16 22 -3
12 1 17 10 14 7 -3 15 -13 16 -22z m-223 -76 c-3 -6 -10 -10 -16 -10 -10 0
-12 33 -2 44 9 9 26 -22 18 -34z m-1995 0 c0 -5 -2 -10 -4 -10 -3 0 -8 5 -11
10 -3 6 -1 10 4 10 6 0 11 -4 11 -10z m-2340 -15 c0 -8 -4 -15 -10 -15 -5 0
-10 7 -10 15 0 8 5 15 10 15 6 0 10 -7 10 -15z m4295 -44 c6 -26 4 -32 -6 -29
-8 3 -15 22 -17 44 -4 46 12 36 23 -15z m-4225 30 c0 -17 -18 -21 -24 -6 -3 9
0 15 9 15 8 0 15 -4 15 -9z m250 -7 c0 -8 -5 -12 -10 -9 -6 4 -8 11 -5 16 9
14 15 11 15 -7z m1870 -5 c0 -5 -4 -9 -10 -9 -5 0 -10 7 -10 16 0 8 5 12 10 9
6 -3 10 -10 10 -16z m-420 1 c0 -5 -4 -10 -10 -10 -5 0 -10 5 -10 10 0 6 5 10
10 10 6 0 10 -4 10 -10z m465 -30 c-5 -8 -11 -8 -17 -2 -6 6 -7 16 -3 22 5 8
11 8 17 2 6 -6 7 -16 3 -22z m-1460 10 c3 -5 1 -10 -4 -10 -6 0 -11 5 -11 10
0 6 2 10 4 10 3 0 8 -4 11 -10z"/>
<path d="M5050 10273 c0 -5 7 -17 15 -27 14 -19 15 -19 15 7 0 17 -5 27 -15
27 -8 0 -15 -3 -15 -7z"/>
<path d="M4265 10220 c3 -5 8 -10 11 -10 2 0 4 5 4 10 0 6 -5 10 -11 10 -5 0
-7 -4 -4 -10z"/>
<path d="M3867 10116 c-5 -13 10 -36 24 -36 9 0 -1 39 -11 45 -4 3 -10 -1 -13
-9z"/>
<path d="M9168 9994 c-5 -4 -8 -16 -8 -28 0 -14 3 -17 11 -9 6 6 9 19 7 28 -1
9 -6 13 -10 9z"/>
<path d="M6925 9864 c-22 -13 -47 -24 -55 -24 -8 0 -45 -20 -82 -45 -37 -25
-72 -45 -78 -45 -13 0 -13 17 0 25 16 10 11 26 -7 25 -26 -3 -63 11 -63 23 0
6 -10 1 -22 -10 -31 -28 -77 -38 -84 -18 -5 11 -11 12 -25 4 -22 -11 -39 -4
-39 16 0 10 -9 11 -36 5 -20 -5 -42 -6 -49 -3 -8 2 -25 -3 -39 -12 -24 -16
-26 -16 -26 -1 0 23 -13 20 -40 -9 -13 -14 -33 -25 -45 -25 -11 0 -26 -5 -32
-11 -16 -16 -44 -4 -37 16 5 13 2 13 -24 -2 -35 -20 -48 -14 -33 16 20 36 -5
31 -50 -10 -24 -22 -45 -35 -47 -29 -2 6 2 17 8 25 9 11 10 15 1 15 -7 0 -9 4
-6 10 3 6 -1 7 -9 4 -9 -3 -16 -12 -16 -19 0 -16 -38 -50 -47 -42 -3 4 -1 18
6 31 27 49 0 47 -56 -4 -48 -44 -73 -60 -73 -46 0 3 14 20 30 38 17 18 30 36
30 41 0 11 -40 -1 -60 -18 -14 -12 -62 -35 -142 -68 l-38 -16 0 30 c0 32 -11
37 -30 14 -12 -14 -50 -21 -50 -9 0 3 5 14 10 25 14 25 1 25 -45 -1 -49 -27
-58 -25 -40 10 16 31 7 41 -15 15 -7 -8 -22 -15 -34 -15 -11 0 -32 -9 -46 -20
-36 -28 -43 -25 -37 14 l6 35 -42 -13 c-23 -7 -60 -25 -82 -40 -37 -25 -40
-26 -43 -9 -2 15 -11 18 -48 17 -25 -1 -53 -9 -63 -18 -18 -16 -81 -23 -81 -8
0 4 5 13 12 20 17 17 -1 15 -45 -3 -20 -8 -52 -15 -72 -15 -29 0 -35 4 -35 21
0 20 -3 19 -35 -10 -20 -17 -39 -31 -44 -31 -17 0 -20 14 -6 34 8 11 15 27 15
35 0 12 -2 12 -17 0 -20 -15 -60 -39 -67 -39 -3 0 -6 8 -9 18 -3 11 -11 2 -25
-30 -12 -27 -24 -48 -28 -48 -3 0 -4 7 0 15 3 10 -1 15 -13 15 -10 0 -21 -7
-25 -15 -3 -8 -13 -15 -22 -15 -11 0 -14 5 -9 18 11 28 18 72 12 72 -10 0 -93
-58 -107 -75 -15 -18 -37 -20 -42 -4 -2 6 -16 -5 -32 -25 -33 -44 -46 -39 -39
14 l6 41 -36 -21 c-19 -12 -55 -38 -79 -59 -23 -21 -52 -41 -64 -45 -12 -3
-44 -29 -72 -56 -28 -28 -54 -50 -57 -50 -4 0 -5 12 -3 26 2 20 -3 29 -19 35
-19 7 -28 2 -55 -31 -17 -22 -37 -40 -44 -40 -6 0 -14 -7 -18 -15 -3 -8 -11
-15 -17 -15 -7 0 -21 -7 -31 -17 -17 -15 -18 -15 -18 3 0 16 -2 16 -14 4 -23
-24 -73 -123 -81 -157 -3 -18 -11 -35 -16 -38 -5 -4 -9 -15 -9 -25 0 -10 -9
-29 -20 -42 -11 -12 -29 -34 -40 -48 -14 -18 -22 -22 -28 -13 -6 10 -12 10
-26 0 -13 -9 -20 -31 -23 -68 -2 -29 -8 -56 -12 -59 -5 -3 -14 -22 -19 -43 -6
-21 -22 -53 -36 -71 -15 -20 -23 -41 -20 -53 3 -12 -11 -53 -35 -100 -23 -45
-41 -89 -41 -98 0 -9 -8 -30 -17 -48 -22 -41 -27 -97 -8 -97 9 0 12 -13 10
-47 -4 -70 -12 -85 -45 -79 -31 4 -43 -14 -54 -84 -8 -49 -8 -55 6 -55 6 0 12
12 12 28 1 16 14 39 30 55 24 23 28 24 23 7 -12 -44 -35 -97 -43 -104 -5 -3
-16 -27 -25 -53 -14 -40 -14 -48 -3 -48 19 0 18 -2 -16 -67 -34 -63 -40 -94
-10 -48 10 17 35 48 54 70 34 38 36 39 36 15 0 -14 -4 -41 -10 -59 -6 -23 -6
-39 1 -47 13 -16 -5 -54 -25 -54 -18 0 -31 -51 -16 -60 12 -7 4 -82 -12 -113
-12 -23 -1 -37 12 -17 12 20 24 5 14 -17 -4 -10 -8 -49 -9 -88 -1 -67 -3 -73
-47 -137 -44 -61 -84 -148 -69 -148 3 0 15 17 26 38 11 20 30 41 42 47 12 5
27 23 33 40 19 52 35 78 49 83 11 4 12 -2 7 -24 -4 -16 -11 -46 -15 -66 -5
-20 -15 -48 -24 -62 -9 -13 -21 -55 -27 -92 -6 -38 -17 -75 -24 -84 -7 -8 -20
-27 -29 -41 -15 -25 -15 -27 2 -22 10 3 24 16 30 29 14 32 31 31 31 -2 0 -14
7 -32 15 -40 16 -16 14 -34 -12 -116 -8 -26 -12 -52 -8 -58 3 -5 -5 -14 -19
-20 -18 -7 -26 -17 -26 -34 0 -13 -3 -33 -6 -43 -6 -16 -5 -16 9 2 10 12 16
15 17 7 0 -19 -29 -84 -46 -103 -22 -24 -54 -90 -54 -111 0 -9 -5 -28 -11 -42
-7 -14 -8 -36 -4 -53 l8 -28 7 27 c11 38 47 95 65 102 8 3 15 17 15 31 0 28
25 44 42 27 18 -18 -3 -85 -30 -97 -30 -13 -43 -63 -23 -85 11 -12 20 -14 29
-7 21 17 24 0 6 -35 -28 -52 -52 -128 -47 -148 3 -10 -3 -32 -12 -50 -20 -38
-14 -48 17 -26 30 21 38 20 38 -4 0 -26 18 -25 47 2 l23 21 0 -36 c0 -26 -8
-46 -31 -71 -17 -20 -27 -41 -24 -47 5 -7 15 -1 30 17 13 16 25 27 28 24 6 -6
-6 -75 -18 -102 -5 -13 -2 -18 9 -18 9 0 16 -8 16 -18 0 -24 -29 -64 -41 -57
-5 4 -12 -1 -16 -10 -3 -10 0 -21 7 -25 11 -7 10 -17 -5 -56 -13 -34 -15 -49
-7 -52 29 -9 4 -248 -29 -288 -16 -20 -6 -49 16 -49 15 0 21 -8 23 -33 2 -19
0 -41 -4 -50 -4 -10 -6 -31 -5 -49 1 -17 -5 -45 -13 -62 -18 -34 -21 -81 -6
-81 6 0 18 16 27 35 17 36 33 46 33 20 0 -22 21 -18 27 5 3 11 9 20 14 20 12
0 12 -27 0 -34 -5 -3 -7 -15 -4 -25 3 -10 -2 -46 -11 -80 -8 -33 -13 -67 -10
-75 3 -8 -4 -24 -16 -36 -12 -12 -26 -35 -30 -51 -10 -35 3 -132 19 -137 15
-5 14 -29 -5 -79 -14 -36 -14 -46 -3 -72 8 -17 18 -31 22 -31 13 0 37 -27 37
-43 0 -8 -12 -27 -26 -43 -16 -16 -22 -30 -15 -32 16 -5 14 -33 -6 -54 -9 -10
-13 -21 -9 -25 3 -4 20 8 36 25 16 18 34 32 40 32 6 0 15 12 21 27 7 19 13 23
20 16 8 -8 6 -20 -7 -42 -10 -17 -21 -31 -25 -31 -4 0 -12 -21 -18 -46 -7 -28
-25 -58 -46 -80 -19 -19 -35 -39 -35 -45 0 -6 13 3 29 20 16 17 36 31 44 31 8
0 20 7 27 15 7 8 16 15 21 15 5 0 9 -7 9 -15 0 -8 5 -15 10 -15 6 0 10 5 10
12 0 6 2 9 5 6 3 -3 -1 -25 -9 -49 -9 -25 -11 -46 -6 -49 5 -3 9 -14 9 -25 0
-50 14 -152 23 -172 8 -17 8 -30 0 -48 -16 -35 -15 -40 4 -24 14 11 18 10 30
-6 8 -10 14 -23 14 -29 0 -5 3 -6 7 -3 10 11 10 61 0 68 -5 4 -7 15 -5 25 3
15 7 11 20 -16 8 -19 21 -54 28 -78 7 -23 19 -42 27 -42 16 0 17 -12 1 -28 -6
-6 -9 -15 -5 -19 4 -3 13 2 21 12 12 17 13 17 20 -8 7 -28 30 -36 40 -14 3 6
3 2 0 -11 -3 -12 -2 -32 2 -44 6 -19 7 -19 16 -5 14 26 28 20 28 -10 0 -16 4
-34 9 -42 7 -11 11 -9 21 8 7 14 17 20 26 17 9 -4 18 3 24 19 11 29 30 33 30
8 1 -16 2 -16 15 1 25 33 38 6 33 -63 -2 -34 -1 -61 4 -61 4 0 8 11 8 25 0 33
28 33 36 0 7 -28 31 -34 41 -10 3 9 13 15 22 13 9 -1 21 1 28 5 7 5 21 -1 33
-13 11 -11 25 -18 30 -15 16 10 21 -14 10 -53 -9 -29 -9 -48 0 -82 l13 -45 11
39 c14 49 41 69 61 43 7 -10 11 -27 8 -37 -4 -14 0 -20 10 -20 9 0 19 -9 22
-21 7 -21 7 -21 21 2 7 13 18 34 23 47 14 29 31 28 31 -3 0 -14 5 -25 10 -25
6 0 10 21 10 46 0 53 19 57 32 6 10 -37 28 -52 28 -23 0 24 38 49 44 29 3 -7
10 -30 16 -51 11 -35 30 -43 30 -11 0 8 4 14 8 14 9 0 42 -92 42 -116 0 -8 5
-14 11 -14 7 0 9 9 6 23 -4 13 1 32 13 47 l19 25 10 -25 c5 -14 10 -19 10 -12
1 16 28 16 34 0 2 -7 8 -1 12 14 5 22 12 26 33 23 15 -2 30 -4 34 -4 4 -1 16
-10 26 -21 21 -23 33 -15 46 28 8 24 36 31 36 8 0 -7 -7 -19 -15 -26 -21 -18
-19 -39 5 -37 13 1 20 8 20 22 0 11 4 26 9 33 11 18 47 -27 56 -71 14 -69 18
-75 26 -43 5 18 4 35 -2 42 -10 12 -5 151 6 162 10 10 25 -21 24 -48 -2 -48 2
-65 20 -89 18 -23 18 -23 10 30 -3 30 -3 58 2 64 6 5 9 4 9 -3 0 -7 8 -20 18
-30 10 -10 24 -44 32 -75 13 -56 29 -61 30 -11 0 28 36 39 50 16 7 -13 9 -9
10 20 0 40 16 60 26 33 6 -14 9 -14 29 5 27 26 39 13 25 -26 -10 -30 -1 -85
16 -91 5 -2 25 17 44 42 38 48 50 55 50 28 0 -14 6 -11 25 12 21 25 26 28 35
15 5 -8 10 -20 10 -27 0 -6 7 -19 16 -28 9 -9 22 -33 29 -53 23 -66 35 -50 28
37 -4 61 -3 81 6 81 7 0 15 -9 18 -21 4 -16 11 -19 29 -15 16 4 26 1 33 -11 9
-16 12 -16 21 -3 5 8 10 23 10 32 0 27 11 48 26 48 10 0 14 -15 15 -52 0 -42
2 -48 9 -31 15 36 29 27 57 -33 14 -30 27 -54 28 -52 2 2 0 29 -4 60 -5 38 -4
61 4 72 16 21 25 20 25 -3 0 -20 28 -35 65 -36 13 0 27 -14 42 -44 28 -54 38
-64 29 -28 -5 23 -3 27 16 27 25 0 68 44 68 69 0 9 8 -1 18 -22 16 -37 18 -38
34 -20 9 10 18 35 20 56 5 56 23 45 21 -13 -1 -38 2 -50 13 -50 8 0 14 6 14
14 0 24 41 87 54 83 6 -2 11 -15 12 -28 2 -52 6 -52 37 5 18 33 37 61 43 63 6
2 14 -11 18 -28 3 -18 13 -37 21 -43 9 -6 18 -34 22 -63 5 -49 23 -65 23 -22
0 27 24 19 28 -9 4 -25 22 -30 22 -6 0 10 5 14 15 10 9 -3 18 1 21 9 4 8 12
15 19 15 7 0 19 10 28 22 l15 23 10 -25 c14 -36 36 -51 69 -48 23 2 29 -1 31
-19 2 -13 7 -23 12 -23 11 0 2 67 -13 98 -8 16 -8 25 0 33 14 14 33 3 33 -17
0 -22 17 -17 25 9 7 21 8 20 15 -8 13 -54 21 -71 41 -84 18 -11 21 -9 26 9 4
15 9 18 19 10 9 -9 15 -6 23 9 6 11 11 28 11 38 0 11 6 28 14 38 13 18 15 16
23 -24 7 -39 14 -46 61 -73 50 -28 53 -28 47 -9 -3 12 -4 35 0 51 5 23 12 30
31 30 20 0 23 4 18 28 -5 31 8 58 25 48 16 -10 14 -47 -4 -66 -21 -23 -30 -86
-17 -113 6 -12 13 -29 15 -37 4 -11 6 -10 6 3 1 10 6 28 13 40 6 12 11 36 9
53 -1 18 4 36 13 43 14 12 16 7 16 -38 0 -32 4 -50 10 -46 6 3 10 14 10 25 0
18 23 34 34 23 3 -4 6 -21 6 -40 0 -20 5 -33 13 -33 6 0 25 -7 41 -15 16 -9
30 -14 32 -12 2 1 -1 20 -6 42 -10 41 -5 75 10 75 5 0 12 -9 15 -20 3 -11 10
-20 15 -20 5 0 14 -16 20 -35 18 -54 31 -32 24 39 -4 43 -3 66 5 70 14 9 34
-40 26 -65 -5 -14 -1 -19 14 -19 16 0 21 6 21 25 0 14 6 25 13 25 7 0 21 18
31 41 22 50 40 46 44 -10 3 -42 22 -49 22 -8 1 21 2 21 23 -5 26 -32 44 -26
49 17 4 40 32 40 36 0 4 -30 32 -65 53 -65 6 0 24 9 40 21 16 11 29 17 29 12
1 -4 8 8 17 27 13 29 17 32 21 15 5 -22 31 -55 43 -55 5 0 6 13 3 29 -10 48
13 44 47 -9 18 -27 36 -50 40 -50 4 0 3 17 -2 38 -9 39 -4 72 12 72 5 0 9 -6
9 -12 0 -7 5 -30 11 -51 11 -41 29 -41 29 0 0 18 4 24 15 19 10 -3 15 1 15 13
0 15 7 18 30 16 24 -2 37 -12 59 -47 16 -25 38 -47 49 -50 17 -5 20 1 25 36
14 103 46 121 67 38 7 -26 15 -41 17 -34 3 6 13 12 23 12 10 0 22 5 26 11 6
11 32 9 68 -6 16 -7 17 -5 12 23 -9 37 8 51 33 28 10 -9 23 -16 30 -16 6 0 14
-7 17 -15 8 -19 34 -19 34 0 0 21 27 19 40 -2 9 -15 10 -14 4 7 -6 23 -6 24
12 10 28 -22 34 -32 34 -62 0 -61 32 -15 45 65 7 41 27 56 50 37 23 -19 36 -1
15 20 -21 21 -26 55 -10 65 6 3 14 -2 18 -12 4 -10 18 -19 34 -20 20 -1 30 5
42 30 12 26 16 28 21 15 4 -9 4 -22 0 -28 -3 -5 3 -23 15 -38 l22 -27 -5 45
c-3 25 -9 61 -12 80 -6 31 -5 33 8 18 8 -10 20 -18 26 -18 7 0 21 -20 32 -45
21 -46 47 -64 35 -22 -15 47 -18 104 -7 111 6 4 11 20 11 37 0 43 17 35 25
-11 4 -24 12 -40 20 -40 11 0 13 12 8 50 -7 61 8 66 36 13 l20 -38 1 30 c0 17
5 37 10 45 9 13 11 13 20 0 5 -8 10 -21 10 -27 0 -16 -1 -16 39 -2 28 10 31
15 31 51 0 32 3 39 15 34 8 -3 15 -1 15 4 0 6 9 10 20 10 12 0 17 5 14 14 -10
26 18 30 38 5 17 -20 19 -21 13 -4 -14 39 -17 102 -6 109 6 4 11 18 11 30 0
28 24 50 45 42 8 -3 15 -15 15 -26 0 -11 5 -20 11 -20 8 0 9 14 5 43 -6 39 -4
43 20 54 15 7 30 10 34 8 4 -3 10 4 13 15 3 11 1 23 -4 26 -12 7 -12 44 0 44
5 0 11 11 13 25 4 18 1 25 -10 25 -12 0 -12 3 -2 15 7 9 19 14 26 11 21 -8 34
27 34 91 0 61 5 75 30 87 62 29 65 33 66 93 2 59 9 103 24 138 16 39 19 55 11
55 -12 0 -20 63 -10 76 5 6 6 14 2 17 -7 7 15 86 29 102 4 5 8 17 8 28 0 17
-1 17 -16 2 -12 -11 -20 -13 -27 -6 -7 7 3 22 31 48 35 32 42 45 42 75 0 20 5
40 10 43 6 4 7 11 4 17 -4 6 -2 13 4 17 8 5 9 18 2 41 -5 19 -14 55 -20 80 -7
25 -16 47 -21 50 -7 5 -9 32 -9 109 0 13 4 29 10 36 5 6 11 44 13 84 3 57 8
76 26 95 l23 24 -21 7 c-26 8 -26 17 -1 40 24 22 26 55 4 55 -15 0 -15 2 0 25
16 24 15 25 -3 25 -29 0 -34 15 -18 53 11 26 12 47 5 93 -8 50 -7 60 8 71 13
9 15 20 9 50 -4 21 -8 63 -10 93 -1 48 2 58 26 83 15 15 31 37 35 49 l6 21
-37 -21 c-44 -27 -65 -19 -35 13 18 19 20 27 11 43 -14 26 -14 69 -1 77 8 5 8
11 0 20 -7 9 -7 21 0 39 14 37 13 46 -5 40 -8 -4 -15 -2 -15 4 0 5 8 12 18 15
22 5 37 47 17 47 -29 0 -34 66 -6 101 l19 24 -41 -4 c-36 -3 -39 -1 -33 15 15
37 18 81 7 88 -16 11 -2 57 27 88 25 27 25 28 7 48 -15 17 -16 24 -7 46 18 38
15 47 -13 40 -29 -8 -32 4 -7 27 23 21 32 21 32 2 0 -8 5 -15 11 -15 7 0 8 7
3 18 -4 9 -8 33 -8 52 -1 19 -7 39 -13 43 -19 12 -16 58 4 72 15 11 15 15 4
29 -7 9 -20 16 -27 16 -17 0 -18 12 -2 28 6 6 13 46 14 89 6 148 10 178 28
206 23 34 18 41 -19 27 -34 -13 -40 -8 -26 18 15 29 14 40 -6 44 -16 3 -16 4
1 18 38 31 87 83 82 87 -3 3 -23 -2 -46 -11 -22 -9 -45 -16 -50 -16 -14 0 -12
24 2 38 6 6 13 32 14 58 2 34 11 54 34 80 29 33 43 61 18 36 -19 -19 -30 -14
-23 9 7 21 7 21 -23 4 -17 -10 -28 -24 -26 -30 5 -13 -23 -41 -32 -32 -3 3 -1
13 4 24 48 94 50 98 40 123 -5 13 -7 35 -3 47 3 14 -1 25 -11 31 -20 11 -7 40
32 71 31 24 26 38 -6 21 -40 -21 -69 12 -35 40 24 20 17 33 -15 28 -34 -5 -36
-2 -13 24 9 11 11 18 5 18 -18 0 -14 56 3 70 9 7 14 19 11 26 -3 7 -1 16 4 19
21 13 9 21 -22 17 -31 -4 -32 -4 -18 14 8 11 21 29 28 42 11 20 10 22 -15 22
-20 0 -24 3 -14 9 21 14 5 44 -20 38 -26 -7 -39 22 -15 35 20 11 12 28 -15 28
-26 0 -24 8 7 33 23 18 24 21 9 29 -10 6 -22 5 -33 -3 -14 -11 -15 -11 -4 1
17 19 15 30 -4 30 -14 0 -16 8 -12 45 5 44 5 45 -23 45 -26 0 -29 3 -23 25 l6
25 -36 -15 c-30 -13 -36 -13 -36 -2 0 8 9 22 21 33 15 13 19 26 15 46 -3 16
-1 39 4 53 9 24 8 25 -15 19 -16 -4 -25 -2 -25 5 0 14 27 58 54 89 11 12 14
22 8 22 -6 0 -14 -4 -17 -10 -9 -15 -25 -12 -25 5 0 18 -2 18 -35 3 -37 -17
-42 -2 -11 31 47 49 7 63 -56 19 -33 -23 -38 -23 -38 2 0 28 -22 25 -50 -7
-15 -17 -25 -23 -28 -15 -2 7 15 33 38 60 40 45 41 47 19 50 -14 3 -28 -3 -36
-14 -12 -16 -13 -16 -13 -1 0 20 -4 21 -30 5 -27 -17 -36 -3 -16 26 20 31 20
36 1 36 -18 0 -19 12 -3 28 9 9 9 12 -1 12 -8 0 -11 7 -8 20 4 16 0 20 -20 20
-16 0 -27 7 -30 20 -6 22 -18 26 -28 10 -12 -19 -22 -10 -23 20 0 16 4 32 9
35 5 4 9 11 9 18 0 6 -16 -4 -35 -23 -33 -32 -35 -33 -35 -11 0 21 -1 21 -22
7 -33 -23 -40 -20 -33 14 6 28 5 30 -24 30 -21 0 -32 -6 -36 -20 -7 -22 -40
-44 -54 -36 -5 3 -16 -3 -26 -14 -18 -20 -45 -27 -45 -12 0 14 35 42 52 42 20
0 52 36 40 44 -6 3 -17 3 -26 0 -19 -7 -21 7 -4 24 15 15 1 16 -42 1 -25 -9
-34 -9 -40 2 -7 10 -14 11 -36 0 -36 -16 -54 1 -23 23 13 9 29 16 36 16 7 0
13 5 13 10 0 15 -36 12 -50 -5 -7 -8 -24 -15 -38 -15 -14 0 -34 -8 -45 -17
-15 -13 -21 -15 -24 -6 -3 9 -10 10 -24 3 -25 -14 -26 6 -2 32 13 15 14 21 4
31 -10 9 -16 7 -31 -10 -15 -19 -20 -20 -29 -9 -13 16 1 32 34 38 28 5 33 38
6 38 -13 0 -21 6 -21 17 0 14 -3 13 -16 -5 -15 -22 -44 -30 -44 -12 0 11 -55
5 -96 -10 -23 -9 -31 -8 -47 9 -19 19 -20 19 -36 1 -9 -10 -31 -21 -49 -25
-31 -6 -32 -5 -27 18 6 21 3 25 -24 29 -18 3 -36 -1 -44 -9 -8 -8 -20 -15 -28
-16 -8 -2 -25 -10 -39 -20 -29 -20 -61 -22 -78 -5 -9 9 -15 9 -24 0 -18 -18
-31 -14 -25 8 7 28 -3 25 -29 -7 -24 -31 -42 -27 -25 5 18 33 -8 46 -58 29
-39 -14 -86 -12 -106 3 -5 5 -30 5 -54 0 -30 -5 -51 -4 -63 3 -14 9 -23 9 -39
-2 -22 -13 -30 -9 -43 24 -2 6 -9 5 -17 -2 -7 -7 -20 -13 -29 -13 -9 0 -27
-11 -40 -25 -25 -27 -45 -33 -37 -12 3 7 -3 18 -13 25 -14 9 -27 5 -65 -19
-45 -29 -75 -32 -75 -9 0 7 -8 9 -21 5 -13 -5 -25 -2 -29 6 -7 10 -12 10 -26
-1 -15 -13 -16 -12 -9 18 l7 33 -41 -26 c-23 -14 -46 -23 -51 -20 -16 10 -12
62 6 79 22 22 6 18 -41 -10z m1115 -83 c0 -13 -26 -32 -33 -24 -8 7 11 33 24
33 5 0 9 -4 9 -9z m-2710 -36 c0 -8 -4 -15 -10 -15 -5 0 -7 7 -4 15 4 8 8 15
10 15 2 0 4 -7 4 -15z m830 5 c0 -5 -4 -10 -10 -10 -5 0 -10 5 -10 10 0 6 5
10 10 10 6 0 10 -4 10 -10z m990 -19 c0 -12 -20 -25 -27 -18 -7 7 6 27 18 27
5 0 9 -4 9 -9z m-2340 -36 c0 -8 -7 -15 -15 -15 -9 0 -12 6 -9 15 4 8 10 15
15 15 5 0 9 -7 9 -15z m230 -4 c0 -12 -20 -25 -27 -18 -7 7 6 27 18 27 5 0 9
-4 9 -9z m-698 -46 c-8 -28 -32 -48 -32 -25 0 12 31 62 36 57 2 -2 0 -16 -4
-32z m4098 11 c0 -3 -4 -8 -10 -11 -5 -3 -10 -1 -10 4 0 6 5 11 10 11 6 0 10
-2 10 -4z m-4400 -170 c0 -19 -44 -50 -48 -36 -4 12 26 50 40 50 4 0 8 -6 8
-14z m-140 -112 c0 -3 -11 -19 -25 -36 -14 -16 -25 -36 -25 -44 0 -8 -4 -14
-10 -14 -11 0 8 48 27 68 7 7 13 18 13 23 0 5 5 9 10 9 6 0 10 -3 10 -6z
m4670 -54 c0 -5 -4 -10 -10 -10 -5 0 -10 5 -10 10 0 6 5 10 10 10 6 0 10 -4
10 -10z m718 -102 c-2 -6 -15 -15 -28 -20 -23 -9 -23 -8 -5 12 20 22 39 27 33
8z m-931 -20 c-4 -13 0 -26 9 -33 18 -12 9 -45 -12 -45 -8 0 -14 -10 -14 -22
0 -21 1 -21 13 -4 11 15 17 17 35 7 12 -6 22 -16 22 -21 0 -5 5 -21 11 -37 10
-27 11 -27 25 -9 8 11 14 41 14 67 0 56 19 78 43 51 8 -9 18 -29 22 -44 4 -15
13 -29 21 -32 8 -3 14 -14 14 -24 0 -22 23 -46 33 -35 4 3 7 17 7 30 0 29 17
63 30 63 6 0 10 -9 10 -20 0 -11 5 -20 10 -20 6 0 10 -6 10 -14 0 -8 5 -18 11
-22 9 -5 10 1 5 20 -12 47 5 49 37 5 26 -35 32 -52 30 -89 -1 -41 0 -43 13
-26 8 11 14 25 14 31 0 7 9 20 19 29 18 17 19 16 25 -2 4 -11 4 -32 0 -46 -4
-16 -2 -26 5 -26 6 0 11 -11 11 -24 0 -14 4 -27 9 -30 4 -3 6 -29 4 -58 l-5
-53 25 45 c30 53 53 72 67 51 6 -11 9 -5 12 20 2 19 7 34 13 34 13 0 16 -204
3 -237 -6 -16 -16 -28 -23 -28 -25 0 -54 -106 -37 -136 8 -14 5 -28 -9 -55
-10 -21 -21 -61 -24 -89 -6 -64 -8 -68 -70 -122 -55 -48 -101 -75 -112 -65 -7
8 16 58 32 69 5 4 7 9 4 12 -2 3 -25 -12 -50 -34 -37 -32 -55 -39 -93 -41 -30
-2 -52 -9 -63 -21 -9 -10 -21 -18 -27 -18 -6 0 -24 -7 -40 -15 -34 -18 -50
-11 -36 15 7 14 6 20 -7 24 -9 4 -21 2 -27 -4 -14 -14 -23 -13 -30 6 -4 9 -1
24 6 32 11 14 10 15 -7 8 -11 -4 -40 -14 -65 -23 -25 -8 -51 -20 -57 -25 -10
-8 -13 -6 -13 6 0 9 18 27 39 40 47 30 56 42 36 50 -8 3 -15 15 -15 26 0 12
-4 18 -10 15 -6 -4 -24 -8 -41 -10 -26 -4 -29 -2 -24 15 8 24 -16 27 -35 5
-14 -17 -40 -20 -40 -5 0 5 16 27 35 49 45 49 47 73 5 61 -23 -7 -32 -5 -40 8
-5 9 -10 13 -11 7 -1 -5 -2 -14 -4 -20 -1 -5 -3 -16 -3 -22 -1 -7 -8 -13 -16
-13 -26 0 -14 82 17 123 21 28 24 37 13 37 -9 0 -18 12 -22 28 -3 15 -9 37
-14 48 -5 12 -6 31 -3 42 2 11 0 23 -6 26 -6 4 -11 15 -11 25 0 10 -7 24 -15
31 -12 10 -13 16 -4 26 8 10 8 18 1 27 -15 18 -3 70 15 63 10 -4 11 -1 3 14
-17 31 -12 49 11 43 12 -4 28 -24 41 -54 12 -27 25 -49 30 -49 4 0 8 18 8 41
0 32 -3 40 -14 36 -21 -8 -33 11 -41 64 -5 34 -3 48 8 58 18 14 22 9 31 -42 7
-38 8 -39 27 -21 17 15 22 16 29 4 16 -26 22 -3 9 39 -9 30 -9 45 -1 53 8 8
14 1 25 -23 8 -19 21 -40 30 -47 14 -12 15 -10 7 20 -12 39 -13 118 -2 118 4
0 13 -9 20 -20 21 -34 30 -23 43 55 8 54 16 75 27 75 10 0 13 -7 9 -22z m99
-15 c-10 -10 -19 5 -10 18 6 11 8 11 12 0 2 -7 1 -15 -2 -18z m149 -42 c3 -5
1 -12 -5 -16 -5 -3 -10 1 -10 9 0 18 6 21 15 7z m-4965 -41 c0 -5 -4 -10 -10
-10 -5 0 -10 5 -10 10 0 6 5 10 10 10 6 0 10 -4 10 -10z m5278 -83 c2 -19 -1
-27 -12 -27 -11 0 -16 10 -16 31 0 38 24 35 28 -4z m-5258 -6 c0 -6 -4 -13
-10 -16 -5 -3 -10 1 -10 9 0 9 5 16 10 16 6 0 10 -4 10 -9z m4350 -302 c7 -11
14 -18 17 -15 13 12 33 -18 33 -49 0 -38 -21 -59 -49 -50 -16 5 -21 14 -20 38
1 18 -1 47 -4 65 -6 36 7 43 23 11z m960 -93 c0 -7 -7 -19 -15 -26 -16 -13
-20 -3 -9 24 8 20 24 21 24 2z m-2883 -28 c-3 -7 -5 -2 -5 12 0 14 2 19 5 13
2 -7 2 -19 0 -25z m410 10 c-3 -8 -6 -5 -6 6 -1 11 2 17 5 13 3 -3 4 -12 1
-19z m-2991 -15 c-10 -10 -19 5 -10 18 6 11 8 11 12 0 2 -7 1 -15 -2 -18z
m2724 3 c0 -8 7 -16 15 -20 8 -3 17 -23 21 -44 9 -56 18 -69 38 -53 9 7 22 11
30 8 9 -4 20 8 32 34 11 21 22 39 26 39 4 0 14 -16 22 -35 18 -42 36 -46 36
-8 0 26 0 26 18 7 10 -10 23 -28 29 -38 9 -16 11 -14 17 14 3 19 1 38 -5 46
-19 23 -3 45 28 41 26 -4 28 -7 27 -50 0 -38 3 -47 17 -47 10 0 23 -2 31 -5 7
-3 20 8 31 26 16 29 19 30 40 17 15 -10 31 -12 52 -7 35 10 40 6 59 -46 l15
-40 0 33 c1 38 18 75 31 67 5 -3 12 -35 15 -70 6 -52 10 -63 20 -55 8 6 17 30
20 53 8 45 29 77 52 77 11 0 13 -10 8 -42 -4 -24 -2 -54 4 -68 l9 -25 8 33 c8
38 24 53 24 23 0 -27 12 -27 28 0 7 11 19 18 27 16 7 -3 15 3 18 15 10 38 31
12 49 -63 10 -41 26 -94 35 -118 15 -38 18 -41 25 -22 7 21 28 29 28 11 0 -20
21 -9 31 17 14 37 34 15 34 -37 0 -22 4 -39 9 -37 17 6 24 55 15 97 -10 45 -5
64 16 56 7 -2 18 1 24 7 8 8 14 8 22 0 9 -9 6 -21 -9 -47 -12 -20 -17 -36 -12
-36 5 0 12 5 15 10 11 18 25 10 25 -14 0 -12 -5 -38 -11 -55 -9 -27 -9 -36 3
-48 14 -13 16 -10 22 32 4 25 14 49 22 52 8 3 14 13 14 23 0 18 36 38 47 26 4
-3 1 -17 -7 -30 -7 -14 -10 -34 -7 -46 3 -13 0 -23 -9 -27 -16 -6 -19 -33 -4
-33 6 0 15 11 20 25 13 35 36 31 56 -10 20 -42 23 -43 21 -8 -3 37 34 44 57
12 l16 -23 6 32 c9 44 27 35 36 -18 4 -24 13 -47 19 -51 8 -5 10 -27 7 -67 -3
-32 -2 -66 3 -73 7 -11 9 -9 9 6 0 11 5 27 10 35 8 12 13 13 30 2 19 -11 20
-10 20 23 0 35 25 75 47 75 6 0 13 12 15 27 5 41 28 41 28 0 0 -46 -54 -167
-75 -167 -17 0 -18 -6 -5 -35 7 -18 9 -17 20 13 22 60 50 32 50 -52 0 -37 1
-38 18 -23 23 21 32 21 32 2 0 -8 5 -15 10 -15 20 0 10 -51 -15 -74 -14 -13
-25 -30 -25 -37 1 -10 4 -9 14 4 8 10 18 17 22 16 23 -4 34 4 54 36 28 46 44
45 36 0 l-7 -35 43 2 43 3 3 -63 c2 -49 0 -64 -13 -68 -8 -3 -15 -15 -15 -25
0 -23 27 -15 52 16 16 18 17 18 18 2 0 -10 -6 -50 -14 -90 -25 -123 -28 -157
-18 -157 6 0 12 15 14 33 4 43 37 44 57 2 l15 -30 7 30 c10 46 38 105 49 105
14 0 12 -25 -5 -67 -18 -42 -11 -57 11 -25 8 12 19 22 25 22 20 0 7 -54 -31
-130 -45 -90 -45 -90 -25 -90 8 0 15 7 15 15 0 8 8 19 19 24 14 8 23 5 40 -10
21 -20 21 -48 0 -91 -6 -10 -5 -18 3 -20 10 -4 10 -13 0 -45 -17 -59 -16 -69
8 -48 19 17 20 17 29 -6 9 -24 9 -24 16 6 11 49 24 77 35 70 6 -3 10 -17 10
-31 0 -34 -30 -125 -47 -146 -8 -9 -13 -30 -11 -50 l4 -33 19 40 c19 39 19 39
23 13 4 -31 -21 -111 -36 -116 -6 -2 -13 5 -15 15 -3 10 -5 -4 -4 -32 1 -27 8
-56 14 -63 11 -11 13 -11 13 1 0 19 60 127 70 127 5 0 9 -55 8 -122 0 -131 7
-178 28 -191 7 -4 11 -14 7 -23 -4 -11 -9 -12 -19 -3 -11 9 -14 6 -14 -14 0
-19 4 -25 15 -21 23 9 19 -9 -20 -93 -39 -81 -41 -103 -5 -54 46 66 53 25 13
-76 -28 -69 -36 -81 -84 -134 -27 -29 -46 -79 -30 -79 5 0 11 9 14 20 6 22 27
27 27 6 0 -36 -53 -174 -80 -207 -16 -21 -30 -42 -30 -48 0 -6 -10 -15 -21
-22 -17 -9 -19 -13 -8 -20 12 -7 10 -15 -7 -46 -24 -43 -40 -103 -27 -103 5 0
15 20 22 44 7 25 21 52 32 62 22 19 38 12 20 -9 -6 -8 -9 -21 -6 -29 7 -18
-52 -108 -71 -108 -7 0 -20 -16 -28 -35 -8 -19 -22 -38 -30 -41 -8 -3 -25 -25
-36 -49 -15 -30 -33 -50 -58 -62 -21 -10 -39 -27 -40 -38 -2 -11 -13 -30 -24
-42 -17 -18 -19 -25 -9 -37 10 -12 9 -21 -4 -46 -9 -17 -20 -28 -25 -25 -13 8
-13 42 0 50 6 3 10 11 10 16 0 6 -15 -1 -33 -15 -17 -13 -44 -31 -59 -39 -27
-13 -47 -39 -148 -184 -27 -39 -62 -78 -77 -85 -14 -7 -35 -31 -46 -52 -11
-21 -33 -46 -48 -55 -15 -8 -35 -28 -44 -43 -25 -43 -46 -38 -24 5 9 18 9 20
-2 10 -7 -7 -21 -13 -31 -13 -10 0 -18 -4 -18 -9 0 -11 -86 -71 -101 -71 -6 0
-19 -10 -30 -23 -10 -12 -18 -17 -19 -10 0 21 24 67 45 85 14 11 17 20 10 27
-16 16 -75 -41 -75 -72 0 -13 -9 -32 -19 -41 -18 -16 -20 -16 -28 -1 -9 15
-13 13 -36 -15 -15 -17 -32 -30 -38 -28 -8 3 -6 10 5 20 9 9 16 23 16 31 0 9
12 25 28 37 l27 21 -25 -6 c-14 -3 -42 -11 -63 -17 -30 -9 -40 -9 -46 0 -5 9
-14 5 -31 -13 -12 -13 -27 -22 -31 -19 -5 3 -19 -2 -31 -10 -12 -9 -32 -16
-43 -16 -12 0 -26 -5 -33 -12 -22 -22 -24 1 -2 32 12 17 20 34 16 37 -3 3 -8
-2 -12 -11 -8 -21 -58 -48 -77 -40 -8 3 -18 1 -22 -5 -9 -16 -25 -13 -25 4 0
29 -56 17 -93 -20 -34 -34 -67 -46 -67 -25 0 14 37 50 52 50 6 0 9 3 6 6 -11
10 -52 -17 -85 -55 -30 -35 -60 -38 -35 -3 30 43 26 68 -6 39 -10 -10 -25 -17
-33 -17 -8 0 -20 -5 -26 -11 -5 -5 -25 -12 -44 -14 -19 -3 -35 -9 -37 -15 -4
-10 -86 -50 -103 -50 -20 0 -7 44 21 68 35 31 38 42 11 42 -11 0 -29 -13 -40
-28 -20 -28 -101 -69 -101 -51 0 5 -11 7 -25 3 -27 -7 -30 -2 -15 26 14 26
-23 34 -46 9 -9 -10 -21 -19 -26 -19 -11 0 -10 37 2 61 9 17 7 19 -16 17 -25
-2 -43 -17 -116 -95 -31 -34 -56 -30 -52 7 5 38 -20 31 -43 -14 l-16 -31 -9
30 c-7 27 -4 33 29 62 40 34 36 40 -26 34 -19 -2 -23 2 -18 18 5 21 -7 29 -18
12 -3 -5 -18 -9 -33 -9 -15 0 -34 -1 -42 -3 -11 -3 -14 3 -12 24 3 25 1 27
-22 21 -16 -4 -26 -2 -26 5 0 21 -29 11 -59 -21 -26 -28 -31 -30 -31 -13 0 10
15 34 33 53 31 33 31 34 7 27 -14 -4 -31 -10 -37 -12 -7 -3 -13 0 -13 7 0 7
-14 3 -36 -11 -36 -22 -36 -22 -25 -1 6 12 21 28 34 38 l22 16 -25 -7 c-75
-21 -73 -21 -66 21 4 22 3 51 -3 64 -6 17 -10 19 -10 8 -1 -19 -6 -23 -44 -32
-25 -6 -28 -4 -22 13 8 27 -12 36 -35 16 -18 -16 -19 -16 -25 8 l-7 26 -37
-40 c-21 -21 -44 -39 -51 -39 -9 0 -5 9 10 25 19 21 21 25 7 25 -10 0 -17 8
-17 18 0 27 -10 33 -32 21 -33 -18 -44 5 -19 37 23 30 30 63 9 47 -22 -18 -68
-21 -76 -6 -6 10 -13 6 -30 -17 -13 -17 -27 -28 -32 -25 -13 8 8 55 37 83 13
13 23 28 23 34 0 9 -3 9 -12 0 -20 -20 -47 -15 -41 8 6 24 -4 26 -29 3 -20
-18 -34 -12 -25 12 4 8 15 15 26 15 10 0 22 7 25 16 9 23 0 29 -19 14 -13 -10
-15 -9 -15 9 0 18 -3 19 -25 11 -21 -8 -25 -7 -25 8 0 9 7 30 15 46 19 35 19
36 -1 36 -9 0 -22 7 -29 17 -11 15 -14 15 -36 0 -35 -25 -59 -22 -59 7 0 13 7
29 15 36 19 16 19 40 0 40 -9 0 -27 -7 -41 -16 -34 -23 -40 -11 -15 30 12 19
18 37 14 39 -4 3 -30 -6 -57 -19 -28 -13 -51 -24 -53 -24 -11 0 0 33 20 57 41
52 49 73 32 80 -9 3 -28 0 -42 -6 -32 -15 -41 -7 -20 17 15 17 15 19 -1 33
-12 10 -25 13 -38 8 -10 -4 -22 -8 -26 -8 -15 -2 -8 63 9 81 15 17 15 18 -4
18 -24 0 -48 25 -38 40 3 5 -1 10 -9 10 -19 0 -19 1 -4 54 6 22 21 52 32 65
l21 24 -26 -6 c-15 -4 -33 -1 -44 7 -18 13 -17 14 8 31 l27 17 -24 19 c-13 10
-30 19 -38 19 -7 0 -2 9 12 21 24 20 24 20 3 14 -17 -5 -23 -2 -23 9 0 9 -4
16 -9 16 -5 0 -11 9 -14 21 -4 15 0 23 14 26 23 6 25 38 3 47 -12 4 -14 14 -9
36 7 30 1 35 -32 31 -7 -1 -13 5 -13 14 0 8 6 15 14 15 15 0 28 58 14 66 -12
8 -10 102 3 110 17 10 4 83 -21 116 -19 25 -21 40 -19 141 1 61 6 117 11 124
6 7 7 17 4 22 -4 5 -2 12 4 16 5 3 10 -1 10 -9 0 -9 2 -16 4 -16 2 0 12 -3 20
-6 15 -6 16 4 12 77 -4 86 11 154 41 190 8 9 13 23 11 30 -2 9 6 14 22 13 28
-1 44 15 30 31 -10 13 -21 135 -11 135 4 0 12 -5 19 -12 15 -15 28 -2 14 14
-11 14 -10 67 2 86 4 6 2 21 -4 32 -14 26 -9 76 7 73 8 -2 10 8 6 31 -4 28 -1
37 16 48 11 7 21 18 21 24 0 6 11 21 25 34 15 14 23 30 20 40 -3 10 1 23 10
30 8 7 15 19 15 26 0 22 47 16 70 -8 21 -23 27 -10 9 23 -8 16 -7 25 4 37 8 9
18 40 22 67 l8 50 12 -39 c15 -51 39 -62 30 -15 -3 19 -1 41 4 49 8 12 14 11
35 -10 l26 -23 0 34 c0 19 3 44 6 57 5 17 3 21 -9 16 -10 -3 -18 2 -22 15 -12
40 19 58 34 19 l8 -23 7 23 c8 24 21 28 32 10 5 -7 11 -3 17 13 5 14 11 19 14
12 10 -28 20 -11 17 30 -2 35 13 132 23 146 7 10 32 -36 33 -58 l0 -25 31 30
30 29 19 -24 18 -25 10 35 c5 19 13 42 17 53 7 15 5 17 -12 12 -17 -6 -21 -1
-25 26 -3 18 -3 39 0 46 7 21 27 7 24 -16 -4 -26 6 -28 24 -5 11 16 13 15 25
-10 12 -27 13 -27 20 -9 6 15 14 19 30 15 20 -6 22 -3 17 28 -7 42 1 91 13 83
5 -3 9 -14 9 -25 0 -10 4 -19 8 -19 4 0 13 -13 19 -30 16 -42 33 -38 26 5 -4
28 -2 35 10 35 9 0 21 -10 28 -21 18 -34 40 -2 43 61 2 30 8 56 14 58 7 2 12
-3 12 -12 0 -9 5 -16 10 -16 6 0 9 3 9 8 -5 30 3 35 21 13 17 -19 21 -21 26
-7 9 24 29 19 49 -10 9 -14 19 -23 22 -20 4 3 12 1 20 -6 20 -16 28 -2 15 27
-7 14 -12 39 -12 55 0 40 25 39 39 0 5 -16 15 -30 20 -30 6 0 11 -7 11 -15 0
-9 9 -25 20 -37 22 -24 25 -20 34 57 8 67 22 78 41 31 9 -20 18 -50 22 -67 9
-44 22 -35 29 21 4 27 12 58 19 67 12 16 14 16 26 -10 15 -33 21 -34 34 -4 14
31 49 34 69 5 13 -18 16 -19 16 -5 0 9 7 17 15 17 12 0 15 -15 16 -72 1 -40 4
-59 6 -43 6 45 35 95 55 95 18 0 23 19 19 68 -1 12 3 22 9 22 5 0 10 -6 10
-14z m1835 -6 c3 -5 1 -10 -4 -10 -6 0 -11 5 -11 10 0 6 2 10 4 10 3 0 8 -4
11 -10z m-1420 -30 c-5 -8 -11 -8 -17 -2 -6 6 -7 16 -3 22 5 8 11 8 17 2 6 -6
7 -16 3 -22z m-3165 6 c0 -14 -27 -42 -34 -35 -2 2 0 14 5 27 9 24 29 30 29 8z
m4606 -21 c6 -15 -42 -64 -63 -65 -19 0 -16 9 15 45 30 38 40 42 48 20z
m-2416 -11 c0 -8 -5 -12 -10 -9 -6 4 -8 11 -5 16 9 14 15 11 15 -7z m-25 -23
c3 -5 1 -12 -5 -16 -5 -3 -10 1 -10 9 0 18 6 21 15 7z m-2175 -30 c0 -6 -4
-13 -10 -16 -5 -3 -10 1 -10 9 0 9 5 16 10 16 6 0 10 -4 10 -9z m3685 -69 c-8
-9 -25 20 -18 31 3 5 10 2 15 -7 6 -10 7 -20 3 -24z m125 7 c0 -11 -4 -17 -10
-14 -5 3 -10 13 -10 21 0 8 5 14 10 14 6 0 10 -9 10 -21z m1660 -37 c0 -5 -7
-17 -15 -28 -14 -19 -14 -19 -15 2 0 11 3 24 7 27 9 10 23 9 23 -1z m-1760
-17 c0 -8 -4 -15 -10 -15 -5 0 -10 7 -10 15 0 8 5 15 10 15 6 0 10 -7 10 -15z
m40 -16 c0 -11 -4 -17 -10 -14 -5 3 -10 13 -10 21 0 8 5 14 10 14 6 0 10 -9
10 -21z m490 -29 c0 -25 -18 -36 -26 -16 -8 21 3 49 16 41 5 -3 10 -15 10 -25z
m-150 -25 c0 -8 -4 -15 -10 -15 -5 0 -10 7 -10 15 0 8 5 15 10 15 6 0 10 -7
10 -15z m-4124 -22 c-10 -10 -19 5 -10 18 6 11 8 11 12 0 2 -7 1 -15 -2 -18z
m4784 2 c-7 -9 -15 -13 -17 -11 -7 7 7 26 19 26 6 0 6 -6 -2 -15z m-3046 -30
c-4 -8 -10 -12 -15 -9 -14 8 -10 24 6 24 9 0 12 -6 9 -15z m76 -37 c0 -5 -4
-8 -10 -8 -5 0 -10 10 -10 23 0 18 2 19 10 7 5 -8 10 -18 10 -22z m3060 -31
c0 -7 -5 -18 -12 -25 -16 -16 -38 -15 -38 1 0 7 5 18 12 25 16 16 38 15 38 -1z
m280 -11 c0 -12 -40 -46 -55 -46 -13 0 -3 24 18 41 27 22 37 24 37 5z m-358
-28 c-14 -15 -22 -18 -22 -9 0 15 32 43 39 35 3 -3 -5 -14 -17 -26z m158 -2
c0 -16 -18 -31 -27 -22 -8 8 5 36 17 36 5 0 10 -6 10 -14z m-4950 -183 c0 -14
-19 -38 -25 -32 -8 8 5 39 16 39 5 0 9 -3 9 -7z m1380 -89 c0 -8 -5 -12 -10
-9 -6 4 -8 11 -5 16 9 14 15 11 15 -7z m10 -50 c0 -8 -4 -12 -10 -9 -5 3 -10
13 -10 21 0 8 5 12 10 9 6 -3 10 -13 10 -21z m-1390 -5 c-7 -11 -14 -18 -17
-15 -8 8 5 36 17 36 7 0 7 -6 0 -21z m4690 5 c0 -13 -21 -44 -30 -44 -11 0
-14 33 -3 43 8 8 33 9 33 1z m-4696 -76 c-15 -51 -24 -68 -34 -68 -15 0 -12
38 6 65 20 31 38 33 28 3z m4778 -8 c0 -11 1 -25 2 -32 1 -6 -5 -13 -11 -15
-9 -3 -13 7 -13 31 0 37 19 51 22 16z m-72 -130 c-6 -11 -16 -20 -22 -20 -13
0 -3 57 15 78 10 13 12 12 15 -11 2 -14 -2 -35 -8 -47z m-4754 -255 c-4 -14
-11 -25 -16 -25 -13 0 -13 16 1 42 14 26 23 16 15 -17z m4964 20 c0 -8 -7 -15
-15 -15 -9 0 -12 6 -9 15 4 8 10 15 15 15 5 0 9 -7 9 -15z m-3784 -74 c-11
-18 -36 -13 -36 7 0 10 3 22 7 26 10 10 37 -20 29 -33z m4994 15 c0 -3 -4 -8
-10 -11 -5 -3 -10 -1 -10 4 0 6 5 11 10 11 6 0 10 -2 10 -4z m2 -78 c-7 -7
-12 -8 -12 -2 0 14 12 26 19 19 2 -3 -1 -11 -7 -17z m-6202 -2 c0 -3 -4 -8
-10 -11 -5 -3 -10 -1 -10 4 0 6 5 11 10 11 6 0 10 -2 10 -4z m1221 -49 c-8 -8
-11 -7 -11 4 0 20 13 34 18 19 3 -7 -1 -17 -7 -23z m3899 -303 c0 -8 -5 -12
-10 -9 -6 4 -8 11 -5 16 9 14 15 11 15 -7z m-25 -85 c4 -19 1 -42 -10 -64 -9
-19 -17 -35 -19 -35 -2 0 0 111 3 133 2 18 20 -5 26 -34z m185 -123 c0 -3 -4
-8 -10 -11 -5 -3 -10 -1 -10 4 0 6 5 11 10 11 6 0 10 -2 10 -4z m-5349 -99
c-8 -8 -11 -7 -11 4 0 20 13 34 18 19 3 -7 -1 -17 -7 -23z m1159 -7 c0 -5 -4
-10 -10 -10 -5 0 -10 5 -10 10 0 6 5 10 10 10 6 0 10 -4 10 -10z m22 -55 c0
-5 -5 -11 -11 -13 -6 -2 -11 4 -11 13 0 9 5 15 11 13 6 -2 11 -8 11 -13z
m3959 -58 c-10 -9 -11 -8 -5 6 3 10 9 15 12 12 3 -3 0 -11 -7 -18z m1119 14
c0 -12 -20 -25 -27 -18 -7 7 6 27 18 27 5 0 9 -4 9 -9z m-6225 -21 c6 -10 -24
-59 -38 -60 -7 0 0 45 10 63 6 10 21 9 28 -3z m46 -543 c-13 -13 -15 1 -4 30
7 17 8 17 11 -1 2 -10 -1 -23 -7 -29z m47 -59 c-6 -18 -28 -21 -28 -4 0 9 7
16 16 16 9 0 14 -5 12 -12z m-8 -403 c0 -14 -4 -25 -10 -25 -5 0 -10 11 -10
25 0 14 5 25 10 25 6 0 10 -11 10 -25z m-49 -78 c-8 -8 -11 -7 -11 4 0 20 13
34 18 19 3 -7 -1 -17 -7 -23z m6179 13 c0 -5 -4 -10 -10 -10 -5 0 -10 5 -10
10 0 6 5 10 10 10 6 0 10 -4 10 -10z m-1620 -143 c0 -21 -26 -51 -38 -43 -8 5
-8 13 0 31 12 26 38 34 38 12z m-104 -52 c-9 -14 -21 -25 -26 -25 -18 0 -11
29 12 52 27 27 37 8 14 -27z m-136 -184 c-12 -24 -30 -28 -30 -7 0 19 33 52
38 38 2 -6 -2 -20 -8 -31z m-29 -64 c-16 -16 -26 0 -10 19 9 11 15 12 17 4 2
-6 -1 -17 -7 -23z m-4255 -154 c-5 -12 -10 -13 -17 -6 -8 8 -7 18 2 34 12 21
14 22 17 6 2 -10 1 -25 -2 -34z m34 -55 c0 -7 -5 -20 -10 -28 -9 -13 -11 -13
-19 -1 -5 8 -7 20 -4 28 6 17 33 17 33 1z m3292 -20 c-7 -7 -12 -8 -12 -2 0
14 12 26 19 19 2 -3 -1 -11 -7 -17z m-1322 2 c0 -5 -4 -10 -10 -10 -5 0 -10 5
-10 10 0 6 5 10 10 10 6 0 10 -4 10 -10z m1730 -24 c0 -8 -7 -16 -15 -20 -15
-5 -21 14 -8 27 11 12 23 8 23 -7z m-1090 -5 c0 -12 -20 -25 -27 -18 -7 7 6
27 18 27 5 0 9 -4 9 -9z m450 -20 c0 -6 -4 -13 -10 -16 -5 -3 -10 1 -10 9 0 9
5 16 10 16 6 0 10 -4 10 -9z m170 -5 c0 -7 -7 -19 -15 -26 -12 -10 -15 -9 -15
7 0 11 3 23 7 26 11 12 23 8 23 -7z m-416 -31 c-4 -8 -10 -15 -15 -15 -5 0 -9
7 -9 15 0 8 7 15 15 15 9 0 12 -6 9 -15z m321 -15 c-9 -16 -20 -30 -25 -30
-14 0 -12 12 6 38 23 33 37 27 19 -8z m-385 3 c0 -5 -4 -15 -10 -23 -11 -18
-25 -7 -17 15 6 15 27 21 27 8z m105 -12 c-3 -6 -11 -11 -17 -11 -6 0 -6 6 2
15 14 17 26 13 15 -4z m1315 -61 c0 -5 -4 -10 -10 -10 -5 0 -10 5 -10 10 0 6
5 10 10 10 6 0 10 -4 10 -10z m-4007 -264 c21 -16 22 -35 1 -64 -23 -34 -44
-28 -44 12 0 37 8 66 19 66 3 0 14 -7 24 -14z m53 -183 c-11 -11 -19 6 -11 24
8 17 8 17 12 0 3 -10 2 -21 -1 -24z m87 -60 c-6 -48 -28 -87 -44 -77 -14 8
-11 28 11 78 26 61 41 60 33 -1z m237 -83 c0 -5 -5 -10 -11 -10 -5 0 -7 5 -4
10 3 6 8 10 11 10 2 0 4 -4 4 -10z m37 -122 c-3 -8 -6 -5 -6 6 -1 11 2 17 5
13 3 -3 4 -12 1 -19z m1943 -102 c0 -8 -4 -18 -10 -21 -5 -3 -10 3 -10 14 0
12 5 21 10 21 6 0 10 -6 10 -14z m-190 -30 c0 -7 -13 -25 -29 -40 -39 -37 -50
-16 -15 29 25 33 44 38 44 11z m2620 -54 c0 -10 -7 -27 -15 -38 -14 -18 -14
-17 -15 12 0 17 3 34 7 37 12 13 23 7 23 -11z m40 3 c0 -8 -4 -15 -10 -15 -5
0 -10 7 -10 15 0 8 5 15 10 15 6 0 10 -7 10 -15z m-3840 -11 c0 -8 -5 -12 -10
-9 -6 4 -8 11 -5 16 9 14 15 11 15 -7z m803 -31 c-3 -7 -9 -13 -14 -13 -11 0
-12 34 -2 43 9 10 22 -13 16 -30z m-736 -5 c-3 -7 -5 -2 -5 12 0 14 2 19 5 13
2 -7 2 -19 0 -25z m2825 20 c7 -18 -2 -39 -13 -32 -12 7 -12 44 0 44 5 0 11
-6 13 -12z m-1756 -35 c-10 -10 -19 5 -10 18 6 11 8 11 12 0 2 -7 1 -15 -2
-18z m240 -10 c-11 -11 -19 6 -11 24 8 17 8 17 12 0 3 -10 2 -21 -1 -24z m447
13 c7 -18 -3 -56 -14 -56 -14 0 -21 21 -15 46 7 27 21 32 29 10z m-575 -18
c-2 -13 -7 -23 -13 -23 -5 0 -11 10 -13 23 -2 15 2 22 13 22 11 0 15 -7 13
-22z m88 -25 c-10 -10 -19 5 -10 18 6 11 8 11 12 0 2 -7 1 -15 -2 -18z m634
-5 c0 -19 -2 -20 -10 -8 -13 19 -13 30 0 30 6 0 10 -10 10 -22z"/>
<path d="M8323 9062 c-7 -4 -9 -13 -4 -21 6 -10 10 -9 15 5 8 20 4 25 -11 16z"/>
<path d="M6691 8474 c0 -11 3 -14 6 -6 3 7 2 16 -1 19 -3 4 -6 -2 -5 -13z"/>
<path d="M7627 8134 c3 -7 9 -14 14 -14 14 0 10 17 -5 23 -10 4 -13 1 -9 -9z"/>
<path d="M6617 7940 c-54 -37 -58 -38 -67 -19 -10 18 -12 18 -35 3 -14 -9 -25
-22 -25 -30 0 -7 -4 -15 -9 -19 -6 -3 -7 9 -4 30 6 39 5 39 -31 25 -20 -7 -26
-6 -26 5 0 24 -40 29 -63 7 -43 -39 -92 -51 -55 -14 19 19 2 14 -53 -14 -28
-14 -54 -34 -56 -45 -3 -10 -12 -19 -20 -19 -12 0 -13 3 -3 15 6 8 10 22 8 32
-3 14 -7 12 -20 -13 -19 -34 -48 -63 -48 -46 0 6 5 14 10 17 15 9 12 25 -5 25
-8 0 -36 -20 -62 -45 -25 -25 -50 -45 -55 -45 -11 0 -10 37 1 59 6 10 6 23 0
32 -8 11 -14 9 -33 -15 -13 -16 -22 -35 -19 -42 5 -13 -26 -63 -39 -64 -4 0
-3 14 2 30 11 40 -13 42 -32 3 -11 -23 -20 -28 -46 -25 -26 2 -39 -6 -74 -44
-24 -26 -58 -56 -77 -68 -19 -13 -38 -36 -45 -55 -6 -18 -15 -34 -21 -34 -17
-3 -4 76 22 126 13 27 23 51 21 52 -2 2 -20 -17 -41 -42 -26 -32 -37 -56 -37
-79 0 -18 -16 -62 -37 -101 -20 -37 -43 -80 -50 -95 -8 -16 -22 -28 -31 -29
-9 0 -27 -13 -40 -30 -21 -26 -22 -29 -6 -29 14 0 15 -3 6 -12 -7 -7 -12 -22
-12 -34 0 -23 -35 -74 -51 -74 -18 0 -8 30 18 54 27 25 27 26 8 40 -25 18 -35
12 -35 -22 0 -15 -12 -39 -27 -55 -19 -20 -24 -31 -15 -34 19 -7 14 -27 -13
-59 -14 -16 -34 -53 -46 -83 -11 -30 -33 -70 -50 -88 -16 -19 -29 -43 -29 -53
0 -29 8 -25 24 13 8 17 24 43 35 57 18 23 20 24 27 6 8 -20 -39 -126 -55 -126
-5 0 -12 -12 -15 -26 -5 -19 -2 -30 10 -39 17 -12 17 -15 0 -59 -10 -25 -26
-52 -36 -59 -13 -9 -17 -24 -16 -64 1 -29 7 -58 13 -64 7 -7 10 -24 7 -38 -4
-18 1 -33 15 -48 27 -28 27 -29 -10 -97 -24 -44 -29 -60 -19 -66 7 -5 9 -13 5
-21 -5 -8 1 -6 12 4 48 42 58 0 17 -77 -26 -48 -28 -70 -4 -41 19 23 29 18 36
-20 3 -19 10 -35 15 -35 16 0 9 -29 -11 -48 -12 -11 -24 -42 -31 -76 -13 -72
-7 -95 10 -35 16 59 50 102 73 94 23 -9 29 -31 18 -61 -13 -32 -13 -64 -1 -64
5 0 11 11 13 25 5 43 23 33 24 -15 1 -24 7 -46 13 -48 17 -6 13 -42 -4 -42 -8
0 -15 -7 -15 -17 0 -14 2 -15 18 -1 9 8 32 18 50 22 28 5 35 3 39 -14 6 -23
23 -26 41 -8 9 9 12 5 12 -18 0 -17 -5 -35 -11 -41 -14 -14 -15 -76 -2 -123 9
-34 9 -34 17 -10 5 14 7 29 7 34 -1 5 4 16 12 25 8 9 18 25 22 36 8 19 9 19
13 -4 2 -13 -2 -27 -10 -32 -10 -7 -10 -12 -1 -27 6 -11 15 -37 19 -58 4 -22
13 -47 20 -57 12 -18 13 -18 23 1 6 12 11 33 11 49 0 15 5 35 10 43 17 25 43
-17 35 -57 -4 -24 1 -42 20 -72 14 -23 25 -47 25 -56 0 -29 45 -3 51 30 8 40
34 28 47 -22 10 -35 16 -44 22 -33 5 9 5 19 -2 27 -14 18 -1 83 17 83 9 0 15
-10 15 -25 0 -14 4 -25 9 -25 5 0 12 -22 16 -48 9 -64 21 -85 30 -49 8 31 25
36 25 8 0 -25 18 -37 33 -21 9 10 9 14 0 17 -15 6 -17 33 -3 33 6 0 10 -7 10
-15 0 -8 7 -15 15 -15 9 0 15 -9 15 -23 0 -28 57 -137 71 -137 6 0 8 8 5 18
-13 43 -16 88 -7 102 13 19 28 4 33 -30 3 -24 12 -28 48 -19 10 3 16 -5 18
-26 2 -16 9 -34 16 -40 7 -5 16 -19 21 -30 8 -19 9 -19 13 4 2 13 -2 27 -9 31
-6 5 -9 15 -6 24 7 19 57 22 75 4 9 -9 12 -3 12 29 0 55 23 74 50 42 10 -13
19 -27 20 -31 0 -14 23 -8 35 9 15 20 35 9 35 -19 0 -15 4 -18 17 -14 20 8 33
-10 33 -46 0 -20 4 -26 15 -22 10 4 15 20 15 44 0 47 17 62 26 23 3 -15 10
-41 14 -58 l8 -30 1 38 c1 20 5 37 10 37 13 0 55 -40 69 -65 11 -19 11 -18 12
7 0 15 5 30 10 33 6 3 10 19 10 35 0 37 16 47 32 20 18 -28 24 -25 32 11 7 38
22 30 46 -27 11 -24 22 -44 26 -44 4 0 4 32 1 70 -3 41 -2 70 4 70 5 0 9 -5 9
-11 0 -6 9 -22 20 -36 l20 -26 0 31 c0 59 31 87 45 41 6 -17 9 -19 16 -8 8 12
12 11 23 -3 17 -23 23 -23 36 3 8 15 8 24 1 33 -6 8 -8 21 -5 30 5 13 9 14 21
4 12 -10 17 -8 26 7 6 11 12 25 12 30 0 6 7 10 15 10 9 0 20 -19 28 -47 7 -28
19 -48 27 -48 21 0 27 17 15 40 -9 16 -8 24 5 36 8 8 15 26 15 40 0 26 17 33
26 9 3 -8 16 -14 27 -14 12 0 32 -2 44 -6 15 -5 27 -1 42 14 11 11 23 16 26
11 17 -28 25 -4 20 61 -3 39 -2 75 1 80 3 6 18 -2 32 -16 l26 -27 12 34 c6 18
18 34 27 36 10 2 17 12 17 22 0 26 15 33 30 15 16 -19 30 -10 30 20 0 15 7 26
20 30 13 4 21 18 25 43 3 20 12 51 20 68 7 17 11 42 8 57 -4 19 0 29 11 33 9
3 16 14 16 23 1 9 7 27 15 41 l13 25 10 -25 c5 -14 12 -34 15 -45 2 -11 5 6 6
38 0 32 6 67 12 78 6 11 12 46 14 77 3 31 7 84 9 117 2 33 5 65 5 71 1 7 15
26 33 43 24 24 28 31 15 31 -15 0 -16 3 -6 21 8 17 8 23 -1 29 -7 4 -10 12 -6
18 3 6 1 12 -5 14 -14 5 -2 68 13 68 5 0 9 10 8 23 -3 38 -1 47 15 47 8 0 19
10 26 21 11 21 10 22 -20 16 -37 -8 -38 -5 -9 33 16 22 19 33 11 41 -13 13 -1
41 32 72 20 18 20 18 -12 13 -39 -6 -44 11 -13 39 15 13 17 21 9 31 -7 9 -7
19 1 33 8 16 8 21 -1 21 -6 0 -8 7 -5 16 5 14 1 16 -34 10 -47 -7 -51 4 -13
32 l28 20 -28 -5 c-41 -8 -48 24 -11 55 31 25 29 26 -37 6 -19 -6 -20 -4 -14
16 7 21 5 22 -29 16 -49 -9 -47 7 7 58 l42 41 -33 3 c-27 3 -33 7 -29 22 3 11
-1 21 -9 24 -8 3 -14 15 -14 26 0 15 -8 22 -30 27 -29 5 -34 13 -31 41 2 11
-2 11 -19 2 -30 -16 -37 -5 -19 28 18 32 14 63 -6 55 -8 -3 -28 9 -46 26 -17
17 -35 29 -40 25 -5 -3 -9 2 -9 11 0 9 -9 19 -20 22 -15 4 -17 9 -10 23 13 25
13 26 -12 26 -86 1 -98 4 -98 26 0 20 -1 20 -18 5 -30 -27 -62 -21 -75 13 -6
17 -17 30 -24 30 -22 0 -14 33 14 55 30 25 24 51 -11 40 -11 -4 -32 -8 -46
-10 -14 -2 -38 -7 -54 -11 -26 -6 -29 -5 -23 15 4 15 0 21 -11 22 -30 2 -57
-3 -66 -12 -6 -5 -21 -9 -34 -9 -21 0 -23 3 -17 31 13 59 13 79 -2 79 -7 0
-16 -7 -19 -15 -8 -20 -118 -98 -122 -86 -2 5 4 23 12 40 22 41 20 44 -11 24
-26 -17 -27 -17 -20 0 3 9 3 17 -2 17 -4 0 -6 11 -3 25 l4 25 -46 -25 c-26
-14 -49 -25 -52 -25 -12 0 -1 30 21 54 22 24 30 37 23 36 -2 0 -29 -18 -61
-40z m-187 -69 c0 -12 -20 -25 -27 -18 -7 7 6 27 18 27 5 0 9 -4 9 -9z m1001
-374 c-16 -16 -26 0 -10 19 9 11 15 12 17 4 2 -6 -1 -17 -7 -23z m-2231 -1146
c0 -12 -20 -25 -27 -18 -7 7 6 27 18 27 5 0 9 -4 9 -9z m60 -165 c0 -7 -7 -19
-15 -26 -16 -13 -20 -3 -9 24 8 20 24 21 24 2z m61 -169 c-8 -8 -11 -7 -11 4
0 9 3 19 7 23 4 4 9 2 11 -4 3 -7 -1 -17 -7 -23z m74 -27 c3 -5 1 -10 -4 -10
-6 0 -11 5 -11 10 0 6 2 10 4 10 3 0 8 -4 11 -10z m-30 -58 c0 -18 -20 -15
-23 4 -3 10 1 15 10 12 7 -3 13 -10 13 -16z m60 -31 c3 -5 1 -12 -5 -16 -5 -3
-10 1 -10 9 0 18 6 21 15 7z m465 -361 c0 -11 -4 -20 -10 -20 -5 0 -10 9 -10
20 0 11 5 20 10 20 6 0 10 -9 10 -20z m1071 -37 c-9 -16 -10 -14 -11 12 0 21
3 26 11 18 8 -8 8 -16 0 -30z m-821 -113 c0 -32 -16 -48 -32 -32 -8 8 -7 20 2
41 15 36 30 32 30 -9z m240 1 c0 -16 -7 -34 -15 -41 -13 -11 -15 -8 -15 13 0
32 9 57 21 57 5 0 9 -13 9 -29z m-342 -22 c2 -32 1 -33 -13 -15 -18 24 -20 59
-2 54 6 -3 13 -20 15 -39z m158 -27 c-12 -11 -18 7 -10 30 l8 23 4 -23 c2 -13
1 -26 -2 -30z"/>
<path d="M8015 7800 c-3 -5 -1 -10 4 -10 6 0 11 5 11 10 0 6 -2 10 -4 10 -3 0
-8 -4 -11 -10z"/>
<path d="M8246 7063 c-6 -14 -5 -15 5 -6 7 7 10 15 7 18 -3 3 -9 -2 -12 -12z"/>
<path d="M4531 6804 c0 -11 3 -14 6 -6 3 7 2 16 -1 19 -3 4 -6 -2 -5 -13z"/>
<path d="M5126 6764 c-9 -22 3 -32 14 -14 12 19 12 30 1 30 -5 0 -12 -7 -15
-16z"/>
<path d="M5110 6541 c-13 -25 -13 -34 0 -26 16 10 32 45 21 45 -6 0 -15 -9
-21 -19z"/>
<path d="M5109 6394 c-13 -15 -18 -25 -10 -22 13 4 49 48 39 48 -2 0 -15 -12
-29 -26z"/>
<path d="M5310 5790 c0 -5 5 -10 10 -10 6 0 10 5 10 10 0 6 -4 10 -10 10 -5 0
-10 -4 -10 -10z"/>
<path d="M4735 5629 c-4 -6 -5 -12 -2 -15 2 -3 7 2 10 11 7 17 1 20 -8 4z"/>
<path d="M7817 5333 c-4 -3 -7 -11 -7 -17 0 -6 5 -5 12 2 6 6 9 14 7 17 -3 3
-9 2 -12 -2z"/>
<path d="M6391 5234 c0 -11 3 -14 6 -6 3 7 2 16 -1 19 -3 4 -6 -2 -5 -13z"/>
<path d="M3895 9519 c-4 -6 -5 -12 -2 -15 2 -3 7 2 10 11 7 17 1 20 -8 4z"/>
<path d="M3429 8754 c-13 -15 -18 -25 -10 -22 13 4 49 48 39 48 -2 0 -15 -12
-29 -26z"/>
<path d="M10108 8747 c-3 -19 -2 -25 4 -19 6 6 8 18 6 28 -3 14 -5 12 -10 -9z"/>
<path d="M3342 8500 c-12 -16 -22 -35 -22 -41 0 -6 11 5 25 26 31 45 28 57 -3
15z"/>
<path d="M3266 8325 c-9 -26 -7 -32 5 -12 6 10 9 21 6 23 -2 3 -7 -2 -11 -11z"/>
<path d="M3350 7944 c0 -14 4 -23 10 -19 6 3 10 15 10 26 0 10 -4 19 -10 19
-5 0 -10 -12 -10 -26z"/>
<path d="M10112 7600 c-18 -29 -15 -36 8 -15 20 18 26 35 12 35 -4 0 -13 -9
-20 -20z"/>
<path d="M10117 6763 c-4 -3 -7 -13 -7 -22 1 -13 3 -13 11 2 11 19 8 33 -4 20z"/>
<path d="M9625 6050 c9 -31 25 -50 25 -29 0 7 -8 23 -16 34 -16 19 -16 19 -9
-5z"/>
<path d="M3340 5246 c-6 -9 -10 -21 -8 -28 3 -8 9 -4 17 10 15 28 9 39 -9 18z"/>
<path d="M3310 4655 c0 -8 2 -15 4 -15 2 0 6 7 10 15 3 8 1 15 -4 15 -6 0 -10
-7 -10 -15z"/>
<path d="M10006 4323 c-6 -14 -5 -15 5 -6 7 7 10 15 7 18 -3 3 -9 -2 -12 -12z"/>
<path d="M2835 4320 c-3 -5 -1 -10 4 -10 6 0 11 5 11 10 0 6 -2 10 -4 10 -3 0
-8 -4 -11 -10z"/>
<path d="M3425 4297 c-4 -10 -5 -21 -1 -24 10 -10 18 4 13 24 -4 17 -4 17 -12
0z"/>
<path d="M9771 3779 c-13 -38 -13 -39 -2 -39 9 0 24 60 17 67 -2 2 -9 -10 -15
-28z"/>
<path d="M9031 3754 c0 -11 3 -14 6 -6 3 7 2 16 -1 19 -3 4 -6 -2 -5 -13z"/>
<path d="M3861 3698 c1 -18 17 -55 18 -43 1 6 4 20 7 33 5 16 2 22 -10 22 -9
0 -16 -6 -15 -12z"/>
<path d="M7937 3478 c9 -49 25 -82 18 -39 -3 18 -5 42 -5 52 0 11 -4 19 -10
19 -5 0 -7 -14 -3 -32z"/>
<path d="M4651 3484 c0 -11 3 -14 6 -6 3 7 2 16 -1 19 -3 4 -6 -2 -5 -13z"/>
<path d="M6162 3455 c0 -16 2 -22 5 -12 2 9 2 23 0 30 -3 6 -5 -1 -5 -18z"/>
<path d="M6935 3320 c3 -5 8 -10 11 -10 2 0 4 5 4 10 0 6 -5 10 -11 10 -5 0
-7 -4 -4 -10z"/>
<path d="M4199 3013 c-13 -16 -12 -17 4 -4 16 13 21 21 13 21 -2 0 -10 -8 -17
-17z"/>
<path d="M8350 2910 c-8 -5 -11 -12 -7 -16 4 -4 13 -2 19 4 15 15 7 24 -12 12z"/>
<path d="M5230 11845 c-21 -25 -1 -31 23 -7 17 18 18 22 5 22 -8 0 -21 -7 -28
-15z"/>
<path d="M5685 11850 c-3 -5 -2 -10 4 -10 5 0 13 5 16 10 3 6 2 10 -4 10 -5 0
-13 -4 -16 -10z"/>
<path d="M4575 11800 c-3 -5 -1 -10 4 -10 6 0 11 5 11 10 0 6 -2 10 -4 10 -3
0 -8 -4 -11 -10z"/>
<path d="M3056 11664 c-5 -14 -4 -15 9 -4 17 14 19 20 6 20 -5 0 -12 -7 -15
-16z"/>
<path d="M1591 10644 c-14 -31 -14 -37 -1 -29 16 10 31 43 21 49 -4 3 -13 -6
-20 -20z"/>
<path d="M1471 10407 c-13 -21 -12 -21 5 -5 10 10 16 20 13 22 -3 3 -11 -5
-18 -17z"/>
<path d="M1267 9953 c-4 -6 -3 -14 1 -17 5 -3 7 -18 4 -33 -5 -27 -5 -27 18
-12 31 21 37 39 12 39 -12 0 -22 8 -24 18 -2 12 -6 13 -11 5z"/>
<path d="M1270 9826 c0 -31 6 -34 13 -6 3 11 1 23 -4 26 -5 3 -9 -6 -9 -20z"/>
<path d="M1130 8458 c-12 -22 -12 -22 6 -6 10 10 15 20 12 24 -4 3 -12 -5 -18
-18z"/>
<path d="M1167 7422 c-19 -20 -23 -37 -7 -27 10 6 33 45 27 45 -2 0 -11 -8
-20 -18z"/>
<path d="M1211 6734 c0 -11 3 -14 6 -6 3 7 2 16 -1 19 -3 4 -6 -2 -5 -13z"/>
<path d="M1245 4821 c-6 -11 9 -23 19 -14 9 9 7 23 -3 23 -6 0 -12 -4 -16 -9z"/>
<path d="M1245 4059 c-4 -6 -5 -12 -2 -15 2 -3 7 2 10 11 7 17 1 20 -8 4z"/>
<path d="M11520 3100 c0 -5 5 -10 10 -10 6 0 10 5 10 10 0 6 -4 10 -10 10 -5
0 -10 -4 -10 -10z"/>
<path d="M1590 2474 c0 -22 2 -23 20 -12 11 7 20 16 20 19 0 4 -9 9 -20 12
-16 4 -20 0 -20 -19z"/>
<path d="M10680 1805 c0 -19 5 -35 10 -35 6 0 10 9 10 19 0 11 3 26 6 35 4 11
1 16 -10 16 -12 0 -16 -10 -16 -35z"/>
<path d="M3830 1368 c0 -9 5 -20 10 -23 13 -8 13 5 0 25 -8 13 -10 13 -10 -2z"/>
<path d="M6681 1334 c0 -11 3 -14 6 -6 3 7 2 16 -1 19 -3 4 -6 -2 -5 -13z"/>
<path d="M8931 1293 c0 -4 4 -17 9 -28 8 -19 9 -19 9 2 1 12 -3 25 -9 28 -5 3
-10 3 -9 -2z"/>
</g>
</svg>
